<svg xmlns="http://www.w3.org/2000/svg" xml:space="preserve" id="Layer_1" x="0" y="0" version="1.1" viewBox="0 0 500 500">
  <path fill="#1E182E" d="M193 501h-72v-13l-1 13h-18l-13-23c-2-4-6-7-7-12 1-3 2-5 5-5 3 1 5 0 6-3 2-4 5-4 9 0 1 2 2 6 6 6s9-1 13-3c4-4 8-4 12-2 3 1 5 2 8 1s6 0 10 2l8 5c5 3 9 4 14 1s9-2 13 1c2 3 6 3 8 7 0 8 1 16-1 25z"/>
  <path fill="#261D2F" d="M306 501h-49l-2-5 1-20c2-4 2-8 1-12l-1-13c0 1 1 4-2 4-2 0-2-2-2-4v-4c0-2 1-3 2-3 4 0 5-3 6-6l14-26c2-1 3-2 3-4l1-1 4-5 9-6 5-2 1 2-1 3-2 1-1 1-2 2-1 2-1 1 1-1 1-1 1-2 2-2 2-1c2 1 2 3 2 5-1 4-5 6-8 8l-4 4c-5 4-5 8 0 13-1 5-5 6-8 8l-11 7c-1 1-3 2-3 5l6-4c7-6 15-10 25-11 5-1 6-1 7 5 2 9 4 19 4 29l1 26c1 2 1 4-1 7z"/>
  <path fill="#221B2E" d="M251 501h-44a425 425 0 0 0 0-51c0-9 1-9 10-9 8 1 17 1 25 6-5-6-11-8-18-11l-17-7c-3-1-5-3-5-6s0-6 5-5h2l3 2c9 5 19 9 28 16 2 1 4 3 7 2 3 1 4 3 4 6 1 8 2 15 1 22v8c1 9 2 18-1 27z"/>
  <path fill="#1E1A30" d="M94 501H30v-4c2-6 3-13 6-19 3-1 5-3 6-6l4-5 1-1c4-2 8-3 11 1 3 3 12 1 15-3 3-1 4 1 5 2l16 33v2z"/>
  <path fill="#130B1F" d="M193 501v-26c-2-2-2-4-2-7l1-22c0-4-2-7-7-9l-15-6c-2-3-3-5-6-6-8-2-15-7-20-13-3-4-6-5-11-3l-6-3c-2-7-3-14-7-21l1-6h1l16 12c14 11 30 18 46 25 2 2 3 1 3-1l2-4c2 0 2 2 3 3 1 0 0-4 4-2l1 18c-2 13-1 26-2 39l1 7c-1 8 1 16-2 25h-1z"/>
  <path fill="#291D2E" d="M393 501h-74l-1-3 1-29c1-4 3-3 5-2l5 5 8 5 16 8c8 3 16 6 25 7 3 0 3 1 3 3v1l1-1c5 0 10 0 11 6z"/>
  <path fill="#130B1F" d="M208 419c-2 0-4-2-5 1 0 3 0 6 3 8l19 7c7 3 14 6 19 12 1 1 2 1 1 2v1c-10-6-22-6-32-8-3 0-4 0-4 3v4c1 17-2 34-2 52h-6c-2-2-2-4-2-7v-71c0-4 0-8-3-12-1-4 1-4 3-4 3 0 5 2 6 5v2l1 1c2 0 2 1 3 3l-1 1z"/>
  <path fill="#180F20" d="M306 501c-1-21-1-41-5-61-1-4-2-6-7-5-11 2-20 8-28 15-1 1-2 2-4 1s0-2 0-4c3-5 8-7 13-10l11-8c1-2 4-3 6-3 6 0 11-1 14-7 1-1 2-4 4-1l3 54v23c0 2 0 4-2 6h-5z"/>
  <path fill="#3C252C" d="M429 501h-16c-12-9-24-18-34-30v7l-1 2c-2 0-2-1-2-2l-5-14v-3l-1 1c-3-1-5-2-5-5l3-6c1-5 5-6 9-2l12 14c3 5 6 9 12 12 2 0 4 2 5 4s3 5 7 5l1 1c1 7 7 9 12 11 2 1 4 2 3 5z"/>
  <path fill="#32202B" d="M379 470c5 2 7 7 10 10 2 2 3 5 6 6 7 2 10 10 17 13l1 2h-20c-2-5-7-4-11-6-5-8-3-16-3-25z"/>
  <path fill="#49292C" d="M429 501c0-2-2-3-3-3l-9-5c-4-1-3-7-5-7-4-1-5-4-7-7l-4-3c-4-6-9-11-11-19 2-1 4 1 5 2 2 2 4 5 7 6 4 0 6 2 7 5 0 3 1 6 4 8 10 8 20 16 33 18 3 1 6 1 6 5h-23z"/>
  <path fill="#522D2C" d="M452 501c0-3-3-2-5-3l-18-6c-4-2-7-4-9-8-1-2-4-2-6-3-4-3-6-7-7-11 0-2-2-4-5-4-2-3-4-6-4-10 2-2 4 1 6 2 3 0 4 1 5 3 2 10 9 15 17 21 9 7 21 10 32 12 2 0 3 0 5 2l2 5h-13z"/>
  <path fill="#180F20" d="m94 501-20-37c-2-3-5-6-5-10 3-2 4 2 7 3 3 3 6 4 7 9 7 9 12 19 17 29l2 6h-8z"/>
  <path fill="#1E182E" d="M201 472v29h-7v-25c2-2 1-4 1-6v-3c5-1 4 3 6 5z"/>
  <path fill="#291D2E" d="M311 501v-29c4-1 5 2 8 5l-1 24h-7z"/>
  <path fill="#130B1F" d="M251 501v-27c2-1 4-1 7 1-2 6-1 12-1 18v8h-6z"/>
  <path fill="#180F20" d="M318 501v-25c-2-2-2-4-2-7l1-4 1-11c0-2-1-4 2-5 3 6 2 12 0 18 0 11 1 22-1 34h-1z"/>
  <path fill="#3A5064" d="M37 478c-4 7-5 15-7 23h-2c1-9 4-16 6-25h3v2z"/>
  <path fill="#130B1F" d="M120 501c0-4-1-9 2-13 1 4 0 8-1 13h-1z"/>
  <path fill="#FD9E59" d="M354 46v2l-5 8c-3 4-5 8-10 11h-1c-7-4-11-10-12-18l6-3c-10 4-19 2-28 0l-12-3h-2l-3-1-6-2c-2-2-4-3-4-7l5-1h3c12 3 23 5 35 4 4-2 8-2 12-1 2 0 3 4 6 1 3-2 7-2 11-3l1 1c1 2-1 5 3 6 2 1 1 3 1 6z"/>
  <path fill="#FBF3E7" d="M350 34c-3 2-8 0-11 2-2 1-4 2-6 1h-12l-26-2-10-2h-3c-7-1-13-3-20-3l-26 1-16 3-7 2-4 1a39 39 0 0 0-2 1l-10 5-3 1-2-2c8-7 18-10 28-13 13-3 26-5 39-5 10 0 21 2 31 4 19 4 39 7 58 1l7-3c2-1 3-1 4 2 0 6-2 12-5 18l-1-4-1-2c-8 1-2-3-2-5v-1h1-1z"/>
  <path fill="#FB9E50" d="M356 304c10 4 20 9 28 17 2 2 4 4 4 8l1 2c6 8 9 18 8 29 0 4-3 8-4 12l-5 1-2-1-1-2v-12c1-8 1-15-1-22-2-9-9-13-17-15l-4-1-1-1c-3-3-5-4-7-8-1-2-1-4 1-7z"/>
  <path fill="#2F3242" d="M122 379h-1l-6-6-2-2-1-1v-2l-1-3v-5l2-3 1-2c3-3 5-2 7 1 1 1 2 4 4 3 3-2 4-4 3-6 0-4-3-7-5-10a140 140 0 0 1-3-7c0-3-1-6 2-8 5 1 4 5 7 8 1 4 3 7 6 10l2 3 1 2v2c-1 4 0 7 2 10 2 5 1 7-3 10-5 3-9 7-15 6z"/>
  <path fill="#FCA053" d="m433 427 1 1 1 2c4 4 6 9 8 15h-5c-3-1-4-3-6-6a115 115 0 0 0-24-27l-5-6-6-4-4-4-1-2c-1-4 0-7 5-7 10 4 16 13 24 20l1 2 1 1 1 2a45 45 0 0 1 4 5l1 2 1 2 1 1 2 3z"/>
  <path fill="#FEE4A2" d="M367 222h5c11 5 13 14 13 24v2c0 7-5 13-7 21-1 1-2 4-4 3 0-9-3-18-1-26v-10c-2-3-5 0-7 0-3-2-3-4-3-7s2-4 4-7z"/>
  <path fill="#E2BEAA" d="m146 277-1-4-1-3c-2-7-6-15-5-23 1-9 5-15 13-16 2 3 2 6 1 9l-3 2c-3-1-4 1-4 4v3l1-3c2-1 3 0 5 1v13c-1 4-1 7 3 11l1 1 1 2v4c-1 2-1 5-4 6h-2l-2-2-2-3-1-2z"/>
  <path fill="#FBB963" d="m378 183-4 13-4 22c-4-2-3-5-3-9l2-5v-2l4-22v-4c2-3 3-6 2-9 2-13-1-25-2-37-1-5 0-8 5-10 5 12 6 24 5 36l-1 11-4 16z"/>
  <path fill="#60302C" d="m463 496-24-6c-10-3-19-10-27-19-2-2-5-5-4-9 0-2-1-3-4-3l-2-5c4-3 7-2 10 0l1 2c-1 5 1 8 4 11 11 12 25 19 40 22l4 1 2 6z"/>
  <path fill="#381B22" d="M387 380c0 2 0 4 3 6l-2 11-5 10c-6 6-12 11-19 14-2-1-3-2-2-4v-1l2-2v-1c8-4 9-12 10-20l1-3 3-2 1-2 6-6h2z"/>
  <path fill="#F7814A" d="M380 108c1 2-2 3-2 6l-1 1c-5-1-4-4-3-8l1-1h-2c-3-3-4-5-4-9l1-3c-13-3-26-9-40-12-4-2-1-3 1-4l6-2 5-2 2 1c4 5 9 7 15 9l13 3 6 3 1 3v2c-1 3 0 5 1 7v6z"/>
  <path fill="#6E332C" d="M461 490c-14-1-26-6-37-15l-9-8c-3-2-5-5-3-10 3-1 4 1 5 2 5 8 12 13 20 16 7 3 13 7 21 9 2 1 2 4 3 6z"/>
  <path fill="#7F372C" d="M458 484c-8 0-14-5-21-7-11-4-18-11-25-20v-5l1-1h3l5 6c4 5 9 10 15 12l20 8 2 7z"/>
  <path fill="#903C2C" d="M456 477c-3 0-6 0-9-2l-15-6c-7-4-12-10-17-18-1-2 0-2 2-3l2-1 3 3c6 12 18 15 30 19l1 1 1 1 2 6z"/>
  <path fill="#67BDDA" d="M154 204c-4-14-11-27-15-41-2-5-1-10 1-16l2-1c2 5 1 9 2 14l5 16 8 26-1 2h-2zm-45 118v-2l-1-3c-1-12 4-20 12-28 3-2 7-5 11-6h2c-2 5-6 6-10 9-3 2-6 5-7 10a27 27 0 0 1-1 4l-1 3v6l1 3v3c0 5 2 9 1 14l-5 1c-2-5-2-9-2-14z"/>
  <path fill="#5CC9E7" d="M49 444c1-4 4-7 6-9 13-14 27-27 43-37h1c0 4-3 6-5 7l-8 6-1 1-2 1-23 24c-4 3-4 8-9 10-2 0-2-1-2-3z"/>
  <path fill="#60A0BD" d="m143 146-3 1c0-3-3-4-4-6-4-6-4-13-2-20 2-1 2-3 2-5 1-2 1-3 4-3 3 2 2 6 3 9v2c-6 3-2 7-3 11 1 3 0 5 2 7l1 2v2z"/>
  <path fill="#67BDDA" d="M140 113c-2 0-2 2-2 3-1 2 0 5-3 5-2-15 4-26 18-32l4-3 1 3-2 4-1 2h-1c-6 0-12 6-13 13l-1 5z"/>
  <path fill="#FBF3E7" d="M355 67c10 2 18 6 23 15l2 5v3c-2 0-4-1-5-3-4-6-10-10-18-13-2-1-5-2-3-6l1-1z"/>
  <path fill="#1F1323" d="M120 385c4 2 4 6 5 9l3 11c-8 3-9 2-12-6v-8l3-3 1-3z"/>
  <path fill="#4E2323" d="m356 312 6 6-1 1-1-1h-2l-2-1h-2c-4-2-8-1-11-5l-1-2 1-4 1-4 1-2c0-1 2-1 1-2l-1-2 1-1c1-1 1-2 3-2 1 3-4 7 2 10 0 4 2 6 5 9z"/>
  <path fill="#FEE4B6" d="M381 169c2-16 2-32-3-49v-1h1c7 16 8 32 3 50h-1z"/>
  <path fill="#854334" d="M387 380h-1c-2 1-4 0-4-2 0-7-4-14-4-22l1-2c4-3 5 1 7 3v13l1 1v1c2 1 2 3 2 6l-2 2z"/>
  <path fill="#AFCEDA" d="M152 231c-11 6-14 14-11 25l3 14c-7-13-9-25-1-38 2-3 4-5 7-4l2 2v1z"/>
  <path fill="#E35224" d="M355 67v1c-3 2-6 6-11 7h-2l-4-4-1-2v-1l2-1 9-11h1c1 5-4 7-4 11l5-2c2-1 4-2 6-1l-1 3z"/>
  <path fill="#FBBF86" d="m374 272 3-3c-2 9-8 15-18 17h-6c-2-2-1-4 0-6h2c5 3 6 3 10-1l9-7z"/>
  <path fill="#AFCEDA" d="m192 42 2 1c0 2-1 3-3 4a13 13 0 0 0-2 2l-1 1c-4 2-7 5-10 9-1 1-3 4-6 3l-1-2v-1c2 1 1 0 2-1 5-6 11-12 19-16z"/>
  <path fill="#253146" d="M109 322c2 4 2 8 2 13 2 2 2 5 2 8v13l-1 4v3h-1c-4-3-2-6-2-9l-1-11c2-4 1-9 1-13v-8z"/>
  <path fill="#3D8BAE" d="M37 476h-2c3-10 6-19 12-28h1l-2 7v2a13 13 0 0 1-1 2l-1 2-2 7a12 12 0 0 1-1 3l-4 5z"/>
  <path fill="#60A0BD" d="M161 84c2-7 3-15 8-22l1 1 1 1v4c0 3-1 5-3 7-3 3-3 8-5 12l-1 1c-2-1-2-2-1-4z"/>
  <path fill="#FBF3E7" d="M385 247c-2-4 0-8-2-11-2-6-6-10-11-14 6 1 12 5 13 11 0 3 2 7 1 11l-1 3z"/>
  <path fill="#3A5064" d="m152 230-1-2c3-2 2-5 2-8l1-1 4 1c2 4 2 8 2 12 0 2-1 3-3 2h-1l-1-1a29 29 0 0 0-3-3z"/>
  <path fill="#FC9052" d="m437 444 6 1c3 4 4 9 6 14v2h-2c-4-6-8-10-10-17z"/>
  <path fill="#693128" d="M386 397c2-3 1-8 4-11l7 2c-4 1-4 4-4 8l-3 2-4-1z"/>
  <path fill="#EFBFA2" d="M380 108c-1-3-1-7-3-10-2-2 1-2 1-3v-1l2-1 2 1c1 2 2 3 4 3l1 2c-6 0-4 6-7 9z"/>
  <path fill="#7D2C1A" d="m349 293-2 2-2-1c-2-3 1-6 1-9v-1l1-2 1-1a73 73 0 0 1 2-3c1-1 1-2 3 0l-1 7-3 8z"/>
  <path fill="#FBF3E7" d="M354 48c6 0 12-1 18-5l-1 2c-3 5-7 8-12 8l-4-1c-2 0-3-1-1-4z"/>
  <path fill="#F7652A" d="M358 53c5-2 9-4 13-8v2l-7 8-6 4-3-2c0-3 1-4 3-4z"/>
  <path fill="#FBB963" d="M397 360c-2-4 0-9-2-13-1-6-4-10-6-16 5 2 5 7 7 11 1 5 3 11 1 18z"/>
  <path fill="#FDDAB7" d="m358 58 5-2c-1 3-4 5-7 8l-5 2h-4c-1-2 1-3 2-4l9-4z"/>
  <path fill="#3A5064" d="M108 343c3 0 2 2 2 4l1 16v1l-1 3-2-3v-21z"/>
  <path fill="#EA7948" d="M356 311c-4-1-7-2-5-8l5 1v7z"/>
  <path fill="#FCA053" d="M369 209c-1 3-1 6 1 9l-2 4c-2 1-2 0-3-2l-1-8v-2c2-1 3-2 5-1z"/>
  <path fill="#60A0BD" d="M154 220h-1c-1-4-2-7 0-10 2-2 1-3 1-6h2l1 1 1 2v3l-3 2v2c0 2 1 4-1 6zm-21 64-1-1 14-6 2 1-4 3c-4 1-7 4-11 3z"/>
  <path fill="#FDCE8F" d="M380 169h2l-4 14c-2-5 1-9 2-14z"/>
  <path fill="#5CC9E7" d="M99 399c3-4 7-6 12-8l1 2c-3 3-7 6-12 7l-1-1z"/>
  <path fill="#3A5064" d="m161 84 1 4 1 1-2 2c-2 1-3 0-4-1v-4l4-2z"/>
  <path fill="#67BDDA" d="M111 393v-2l7-4c1 2 0 3-1 4-1 2-3 3-6 2z"/>
  <path fill="#FA864A" d="m389 378-2-6h5l-3 6z"/>
  <path fill="#D66E45" d="M381 94h-4l1-2 1-1c1 0 2-1 2-3 3 1 2 3 2 5 0 1-1 2-2 1z"/>
  <path fill="#E57B4F" d="M352 286v-9l1-2h2l-1 5-1 5-1 1z"/>
  <path fill="#67BDDA" d="m48 449-1-1 2-4 2 3c0 2-1 2-3 2z"/>
  <path fill="#D77149" d="m448 461 1-2 2 4v3h-1c-2-1-3-2-2-5z"/>
  <path fill="#FEDDBC" d="M386 97c-2 2-3 0-5-2h3l2 2z"/>
  <path fill="#535562" d="M108 352v11c-2-3-1-7 0-11z"/>
  <path fill="#C98169" d="M371 47v-2l1-2 1-2c2 0 1 2 1 2l-3 4z"/>
  <path fill="#253146" d="m110 367 1-2 1 1 1 2-1 1v1l-2-3z"/>
  <path fill="#C26747" d="M451 467v-3l2 6h-1c-1-1-2-2-1-3z"/>
  <path fill="#EFBFA2" d="M381 88c0 1 1 3-2 4v-2l1-2h1z"/>
  <path fill="#AB3B22" d="m379 118-1 1-1 1-2-2 1-1 2-1 1 2z"/>
  <path fill="#60A0BD" d="m171 60 1 2-1 1h-1v-1l1-2z"/>
  <path fill="#89331F" d="m378 116-2 1c-1-1 0-2 1-3h1v2z"/>
  <path fill="#130B1F" d="M113 371c1 0 2 0 2 2-1 0-2 0-2-2z"/>
  <path fill="#FBB963" d="M433 427c-1 0-2-1-2-3 1 0 2 1 2 3zm-44-96c-1 0-2 0-1-2l1 2z"/>
  <path fill="#E57B4F" d="M355 286h4-4z"/>
  <path fill="#FDD8B1" d="m385 247 1-3-1 4v-1z"/>
  <path fill="#F5A479" d="M384 95h-3v-1h2l1 1z"/>
  <path fill="#221C30" d="m83 466-7-8c-2-3-2-6-7-7-3 0 0 2 0 3 1 4 5 5 5 10-1 4-3 6-7 5l-5 1c-2 0-4 1-5-1-2-6-6-3-10-2v-1l1-3 3-5 2-3 1-1c5-8 12-13 19-18 8-6 17-9 27-9l21-1c7 0 13-4 19-7l1-2c0-3 2-5 5-2 5 6 11 10 19 11l5 3c6 4 13 5 19 8 3 2 4 3 4 7v31l-9-5c-3-3-6-4-9-2-7 5-13 4-19-1l-7-5c-2-2-5-2-8-1-3 2-6 1-10-1-3-2-5-2-9 1-4 4-10 4-15 5-2 0-3-2-4-3l-3-4c0-2-1-3-3-3s-2 2-3 3c-1 4-2 6-7 4-2-2-3 1-4 3z"/>
  <path fill="#90898B" d="m250 444-2-6c-3 0-3-3-4-5l-7-12-1-1-4-4c-2-3-4-4-4-7 1-3 3-1 5-1l7 3c9 1 17 2 26 0l4-1a165 165 0 0 1 5-2l1 1v3c-5 10-12 19-16 29-1 3-1 7-6 3l-1 2c-2 1-2 0-3-2z"/>
  <path fill="#2F2632" d="m293 427-7 2c-2-1-6-1-6-4 0-4 2-8 5-11l12-9c2-3 4-6 8-7 1 4 6 7 8 11l-1 2h-1l-2 1a9 9 0 0 0-3 3l-2 6-2 1a23 23 0 0 1-2 2 26 26 0 0 0-2 1h-1l-1 1-2 1h-1z"/>
  <path fill="#8D8182" d="M283 403a129 129 0 0 1-6 6h-3l-2 1-4 1c-9 3-17 2-26 1-5-1-10-5-15-4h-2l-2-1-1-2 1-2c2-2 5-3 7-2l16 1h12c6-1 12 0 18-3l7-2h2c1 3 0 4-2 6z"/>
  <path fill="#211827" d="M250 444c1 1 1 2 3 2 0 3-1 6 1 9 2-2 1-6 4-8-2 10 2 18 0 28l-7-1c-2-2-1-5-1-8v-22z"/>
  <path fill="#543738" d="m283 403 2-5v-2l1-1 3-2h1l1-1 1-1h1a18 18 0 0 0 2-2l1-1 1-1 1-1c3-3 2-7 4-10 6-1 7 0 7 6l-1 2-1 1a32 32 0 0 1-1 2 17 17 0 0 1-3 2c-2 2-3 5-7 5-5 2-8 7-13 9z"/>
  <path fill="#32202B" d="m307 384 1-1 4-2c2 6 0 12-7 17l-8 7c0-2 1-4-2-5v-1l1-2 8-9 1-1 1-1 1-2z"/>
  <path fill="#1C0C1B" d="M304 388c-1 4-4 6-8 9v-3l8-6z"/>
  <path fill="#716569" d="M276 412v-2l1-2h1c1 2-1 3-2 4z"/>
  <path fill="#1C0C1B" d="M294 400c0 1 0 2-2 2 0-1 0-2 2-2zm-2 2-1 2 1-2zm3-3v1h-1l1-1zm-4 5-1 1 1-1zm-1 1-1 1 1-1zm-1 1z"/>
  <path fill="#3A2B33" d="M278 408h-1l1-1v1z"/>
  <path fill="#282232" d="M225 407h2v1l1 1 5 5 4 6c2 4 4 8 8 12l2 6c-1 2-2 3-4 1-10-7-22-11-32-19h-2l-1-1v-1c1-1 0-2-1-4l-1 1h-2c-1-7-3-8-8-5l-1 1c-2 2-2 5-2 7-3-1-3-4-3-6-3 2-2 5-1 8-18-9-36-16-52-28l3-1c9 1 17-3 26-6 3-1 5 1 7 3 0 0 1 0 0 0l1-1c2-2 4 0 6 1 2 2 5 3 8 2 3-2 7 0 10 1 4 2 8 4 12 4h4a16 16 0 0 1 3 3l3 3 1 1 2 3 1 1 1 1z"/>
  <path fill="#130B1F" d="M209 420h2-2z"/>
  <path fill="#21293E" d="M54 455v1l-2 2c0 2-2 3-3 5l-2 3v1h-1c-1 1-2 3-5 2l2-7 1-3v-1l1-1c1-3 3-5 3-8 2 2 2-1 3-2 3-3 4-8 8-11 6-1 11-6 17-8 2 3 0 4-1 5-3 3-5 7-9 9-5 3-9 7-12 13z"/>
  <path fill="#252234" d="m41 469 5-2-5 10c-1 1-1 3-4 1v-2l3-6 1-1zm13-14c2-5 4-9 9-12s9-9 14-14l1-1 2-3 4-4 2-2 4-4c1 0 2 0 3-2l2-1 16-11c1-1 3-4 6-3l2 4c1 2 2 5 5 2l4 1 5 3c4 2 7 5 9 9 0 3-1 4-5 5s-8 2-12 5l-5 1c-4-2-9 0-13 0-9 0-18 1-26 5-9 4-16 12-23 19-1 1-2 3-4 3z"/>
  <path fill="#2C2A39" d="M167 385c0 2-1 3-3 3l-17 5c-3 1-6-1-10-1-5-4-11-7-15-13 5-1 9-4 14-7 3-2 5-5 2-9-2-3-3-7-1-11l3 1 23 26c2 2 4 3 4 6z"/>
  <path fill="#252234" d="M201 472c-3 0-2-4-5-5-2-2-1-4-1-6v-50l1-1c3 0 4 1 4 4 2 17 0 33 1 50v8z"/>
  <path fill="#180F20" d="m142 417-9-9c6-5 9 0 12 4 6 6 12 10 20 12 2 1 4 2 5 5-9-3-20-4-25-13-1-2-3-2-3 1z"/>
  <path fill="#333A4A" d="M195 430c2 2 1 3 1 5v35h-2l1-40z"/>
  <path fill="#252234" d="M194 470h2c0 2 1 4-2 6v-6z"/>
  <path fill="#2F232F" d="M320 467v-18c-3-4-1-9-2-13v-5l4-1 2 3c-1 6 4 11 8 15l21 17c7 5 14 10 22 13 3 4 5 8 4 14-1 3-3 2-5 1-10-4-21-6-31-12-7-3-13-6-18-12l-5-2z"/>
  <path fill="#1F1323" d="m379 492-4-14c-3-4-5-9-3-15 3 5 3 11 6 16v-12l1 3 3 25c0 1 0 2-1 0l-2-3z"/>
  <path fill="#221B2E" d="M207 413c1 2 4 2 1 5l-2-3v-2h1zm-3 2h1-1z"/>
  <path fill="#372831" d="M318 467v9c-3 0-4-3-7-4l-2-48 1-7 2-1 3 1c2 2 2 3 2 5v15l1 30z"/>
  <path fill="#2F232F" d="M315 417h-5c-2 0-2 1-3 3-2 5-7 8-14 7h1l2-2 2-1 1-1 2-1 2-1c2-2 1-5 3-7l1-1 1-1 2-1 4-1a5 5 0 0 1 3 2l1 2c0 2 0 3-3 3z"/>
  <path fill="#372831" d="m372 463 3 15-9-3c-11-6-21-15-32-24l-10-10c-2-3-2-6-1-10 6-4 13-3 19-6l2 2c4 10 12 16 19 23l3 6c0 3 2 4 5 5h1v2z"/>
  <path fill="#422C30" d="M366 456c-8-10-19-17-23-30 6-4 12-8 20-10v4c2 6 5 11 10 16 6 6 13 12 17 21 2 6 7 10 10 15l1 4c-6-1-8-5-11-9l-14-16c-1-2-2-4-5-3s-2 3-2 5 0 3-3 3z"/>
  <path fill="#1F1323" d="M372 461h-1l1-1v1z"/>
  <path fill="#503131" d="m390 457-17-20c-4-3-7-6-9-10-1-2-2-4-1-7 7-3 13-7 19-13l1 1-2 5c-3 4-2 8 0 12l15 27 2 3v1c1 3 4 6 4 10-4 0-5-3-8-5-1-2-1-3-4-4z"/>
  <path fill="#58322F" d="M396 453c-7-10-14-21-18-32-1-3-1-5 1-7l3-6c2-1 2 0 3 1l1 5c1 13 7 23 15 34l1 3 1 2 1 6c-2 0-3-3-6-3v-1l-2-2z"/>
  <path fill="#1E182E" d="M69 454c-2 0-4-2-4-4 1-2 4 0 5 0 4 1 7 3 6 8-3 0-4-3-7-4z"/>
  <path fill="#D67B5C" d="M318 467c-2-3-2-7-2-12v-32c2 0 2 3 3 5v2l-1 5c2 10 0 20 0 30v2z"/>
  <path fill="#281522" d="M318 465a851 851 0 0 1 2-16c-2 5 0 10-2 16z"/>
  <path fill="#FA864A" d="M327 49c0 3 0 6 3 7l2 2c-1 4 3 6 6 8v2l-3 3-1 1-1 1-1-1-1 1-1 1a65 65 0 0 1-3 2l-3-1-1-1c-1-2-4-4-2-7l1-1h-2c-2-2-2-4 0-5l1-1-1 1-6-2c-5-6-12-7-19-9l-5-3v-2c3-2 5-1 8-1l29 5z"/>
  <path fill="#FC9052" d="M278 33c-1 3 3 3 3 6-4 3-8 0-12 0-2 0-4-1-6 1-4 1-6-1-10-1l-12-1c-3 0-5-1-6-4 3-4 7-3 11-3h15c6-1 11 0 17 2z"/>
  <path fill="#FC7F40" d="M263 39c1-3 3-2 5-2a788 788 0 0 0 19 4l3 1c0 2-1 2-3 3l-12 1h-6l-6-7z"/>
  <path fill="#F7652A" d="m287 44 3-2 18 3c8 3 17 3 26 0l2-1c-2 3-2 3-9 5-9 1-18-2-26-3l-11-1h-3v-1z"/>
  <path fill="#FDCE8F" d="M285 34c9-2 17 1 26 1l10 2c-2 2-5 1-8 1l-27-3-1-1zm-7-1-16-1v-3c7-1 13 1 20 4h-4z"/>
  <path fill="#E35224" d="M354 48c0 1 0 3 2 3 0 3-3 3-4 5h-3c0-3 2-6 5-8z"/>
  <path fill="#FDCE8F" d="m333 37 5-1c-3 4-4 4-5 1z"/>
  <path fill="#F7652A" d="m342 41-1 1h-1l2-1zm-52 1-3-1 3 1zm52-1 1-1v1h-1z"/>
  <path fill="#AB3B22" d="M338 68v-1h1l-1 1z"/>
  <path fill="#E57B4F" d="M263 39c2 1 4 3 5 6l-2 1-13 2c-3-5-7-6-11-6h-16c-3-3-7-4-7-9l16-4c1 3-1 4-4 4l-3 1h7l3 2 25 3z"/>
  <path fill="#C26747" d="M225 41h7c2 2 6 3 5 7-3 4-7 2-11 3h-4c-3-3-6-5-10-6l-5-1c-3-2-3-3 0-7l1-1 4-1c3 5 8 5 13 6z"/>
  <path fill="#A85F49" d="M207 37c-2 4-1 6 5 7 4 0 8 2 10 6-3 2-6 3-10 2-4-2-8-4-13-3-1 1-3 0-4-2-2-2 0-3 2-5l10-5z"/>
  <path fill="#9F5B49" d="M197 42c0 2-3 3-1 5 1 2 3 1 5 0 4 0 7 0 10 4-1 3-4 2-7 4h-4c-5-5-9-1-13 2l-3-1c-2-4 1-5 3-7l1-1 1-1h1l4-4 3-1z"/>
  <path fill="#F5AF83" d="M230 33c2-1 4-1 5-3l26-1 1 3c-9 0-18 0-27 2h-5v-1z"/>
  <path fill="#CF6D49" d="M225 41c-5 4-9-2-14-3l1-3 7-2c0 4 5 4 6 8z"/>
  <path fill="#FD9E59" d="M351 33s0-1 0 0zm-1 1 1-1v1h-1z"/>
  <path fill="#29111B" d="m356 316 2 1 2 1 2 1h1l3 1c4 4 7 9 9 15 3 9 3 18-2 26-3 5-6 9-7 15l-12 10c-2 1-3 2-5 1-1-2 1-4 2-5l5-6c6-6 11-11 11-20-1-9-6-16-15-18l-4-2c0-7 3-13 4-19l3-1h1z"/>
  <path fill="#93513E" d="m374 335-8-14c13 1 17 4 21 20 1 5 0 10-1 16-3 0-3-3-6-4-3-4-1-9-3-13l-3-5z"/>
  <path fill="#FA864A" d="M387 371v-1 1z"/>
  <path fill="#4E2323" d="M363 319h-1v-1l1 1z"/>
  <path fill="#190E1F" d="m144 280 3-2 3 3 1 2 2 2 2 1v1c4 4 7 3 11 0 3-2 4-1 4 2v7c-1 3-1 6 1 8l1 2c4 11 3 13-9 17-1-1-2-2-4-1-5 3-9 2-14 0-8-2-13 1-15 10 0 1 0 3-2 5l-5-9c-6-9-5-24 3-31l18-17z"/>
  <path fill="#1F1323" d="m128 337 1-9c0-4 9-10 14-8 6 2 11 6 17 0 2-2 3 1 3 3v3c-3 6 0 12 0 18-4 2-6 0-8-2-2-3-3-8-6-11-2-2-2-5-5-5-3 1-3 4-4 6v10c-1 2-1 5-3 6l-3-1c-2-3-5-6-6-10z"/>
  <path fill="#333A4A" d="M144 280c-2 5-6 7-10 11l-2 2c-11 8-13 19-9 31v4c-4 2-1 5-2 8-4-1-3-4-5-6l-2-9-1-3 1-2v-12l1-1c0-7 4-10 9-13l9-6 11-4z"/>
  <path fill="#211827" d="M136 347c3 0 1-3 3-5 2 0 3 1 3 2l12 15c5 8 10 15 17 22 2 1 3 3 3 6 0 1 1 3-2 2l-5-4-20-22a62 62 0 0 1-9-11l-1-1-1-2v-2z"/>
  <path fill="#333A4A" d="M121 338c4 4 6 8 9 13 1 4-1 7-4 9s-4 0-5-2c-1-3-3-5-7-3-2-3 0-6 0-9l7-8z"/>
  <path fill="#3A5064" d="M121 338c0 3-1 6-6 7-2-3-2-6-1-10v-14c3 0 2 3 2 4 1 4 2 7 5 11v2zm-6 7-1 10v2h-2l-1-13c2-1 2 0 4 1z"/>
  <path fill="#333A4A" d="M112 357h2c0 1 0 2-2 3v-3z"/>
  <path fill="#190E1F" d="M136 347v2l-2-2h2z"/>
  <path fill="#130B1F" d="m112 366-1-1v-2h1v3zm0 3 1-1-1 1z"/>
  <path fill="#190E1F" d="m137 351 1 1h-1v-1z"/>
  <path fill="#B3442C" d="m437 444 10 16c-2 2-4 1-6 0-8-2-13-8-18-14l-2-2-6-7c-8-7-11-16-13-25-1-2-1-4 1-7l5 5c2 11 7 20 16 26 2 2 4 3 7 1l2 1 4 6z"/>
  <path fill="#7A392D" d="m390 397 2-1 2 2 1 4c-1 14 4 26 12 37 3 3 6 5 11 5h2l1 1c0 2 0 2-2 3h-2l-3 3-1 1c-5-1-9-3-12-6-9-13-15-27-13-43 0-2 0-4 2-6z"/>
  <path fill="#903C2C" d="M419 445c-5 4-8-1-10-3-8-7-12-17-15-27-1-5-2-11 0-17l4 3 1 5c1 14 6 25 17 33 2 2 3 3 3 6z"/>
  <path fill="#A4412D" d="M419 445c-5-6-11-10-15-17-4-8-7-17-6-26l5 3c0 13 4 24 15 32l4 7-1 1h-2z"/>
  <path fill="#C35136" d="M431 438c-2 2-4 3-6 1-10-6-16-15-18-27l1-1c2 0 3 2 5 3l3 8c2 4 4 8 9 10 3 1 5 3 6 6z"/>
  <path fill="#D54E26" d="M431 438c-4-5-10-6-14-11-2-4-4-7-4-12 8 6 14 14 20 23h-2z"/>
  <path fill="#FEDAA2" d="M354 280v-6l1-2 4-2c7-6 8-13 7-20v-6c0-3 1-6 5-6s3 4 4 6l-1 8-1 4c3 5 2 10 1 16-4 4-7 9-13 11-3 2-6 2-7-3z"/>
  <path fill="#FC7F40" d="M375 244c-2-1 0-5-4-5-3 1-4 2-4 5v4c1 5 1 10-1 15-1 3-3 6-6 8-5 1-6 1-6-4v-7l4-7c1-2 2-3 4-3 2 1 2 2 2 3 1-3-3-7-2-11v-1l4-4c2-2 5-3 8-3 2 3 1 7 1 10z"/>
  <path fill="#FA864A" d="M364 228c0 2-1 5 2 7v3l-3 3-1 5-5 1-1-4v-2l4-11 4-2z"/>
  <path fill="#89331F" d="m364 228-3 2c-6-1-6-1-5-10l4-1h6c0 1 0 3 2 3 0 3-3 3-4 6z"/>
  <path fill="#923722" d="m365 238 1-3c2-2 5-3 8-1-2 1-5 1-8 4h-1z"/>
  <path fill="#CB6144" d="M151 230h1l2 1 2 2c4 4 5 10 8 15l2 15-1 1c-3 1-6-1-9-2v-8l-1 1c-2 0-3-2-3-4l-1-3 1-1h3c0 1 0 1 0 0-2-1-3-3-3-6a116 116 0 0 0-1-11z"/>
  <path fill="#CF6D49" d="M167 288c-6 4-8 4-13-1 3-2 2-6 2-9v-4c4 0 6 4 10 4l2 3v3l-1 4z"/>
  <path fill="#D67B5C" d="M151 251c2 0 2 3 4 3 2 2 1 4 1 6v1c4 4 1 7-1 11-6-3-5-8-5-13l1-8z"/>
  <path fill="#C35136" d="M155 272c-1-3 3-6 1-11 3 0 5 2 8 3l2 3-1 2c-2 3-4 6-9 4l-1-1z"/>
  <path fill="#AF4A37" d="M156 273c4 1 6-3 9-4 2 0 2 2 2 3v5l-1 2c-4 1-7-1-10-5v-1z"/>
  <path fill="#E8B193" d="M156 278c2 2 2 4 2 6s-1 3-3 3h-1l-1-2-2-2c4 0 3-3 5-5z"/>
  <path fill="#7A392D" d="m152 241 4 7h-3l-4-6v-2l3 1z"/>
  <path fill="#C26747" d="M148 242c3 1 4 3 4 6h-1l-4-2-1-1c0-2 0-3 2-3z"/>
  <path fill="#4A2526" d="M149 241c-2 1-2 2-2 4l-2 1c0-3-1-6 4-6v1z"/>
  <path fill="#8C584C" d="m145 246 2-1v1l-1 4-1-4z"/>
  <path fill="#D54E26" d="M376 119h2v1c-7 6-3 13-3 20l2 16-1 11-2 8v5l-2 2c-3 1-5 3-5 6v2c-2 6-3 11-1 18l-1 2v1c-3 0-5-1-6-4-1-16 5-30 11-43l3-18-1-6v-5c0-1 2-1 0-2l-1-2-1-5a8 8 0 0 1 2-6l1-1 1-1 2 1z"/>
  <path fill="#F7652A" d="M371 182c0-2 1-2 3-2 1 6-2 12-3 18v4l-1 2-1 5-4 1v-2c2-6-1-12 1-18v-2l1-2c1-1 1-2 3-2l1 3v-5zm3-7c-1-3-1-6 2-8 1 3 0 5-2 8z"/>
  <path fill="#69372F" d="M390 397c-3 13 0 26 6 38l4 7c3 4 7 7 13 9v1l-1 2-9-1-1-1-2-2-7-12c-5-8-8-17-9-27 0-1 0-2-2-3v-1c1-3 4-6 4-10h4z"/>
  <path fill="#281522" d="m318 430-1-2 23-14 9-7c4-5 10-6 15-10l1-1c4-1 6-4 10-4 0 9-1 18-11 23l-1 1-20 10c-6 3-13 4-20 5h-4l-1-1z"/>
  <path fill="#754037" d="M374 335c5 3 5 7 6 12v6c0 5 0 10 2 15l1 7c0 2 0 4 3 5 0 3-4 4-6 7h-1c-5-7-6-16-7-25 4-8 5-17 2-27z"/>
  <path fill="#1B0E15" d="M375 392c-3 2-5 5-10 5 0-3 3-4 5-5l5-2v2zm3-4c1 1 0 2-2 2 0-2 1-2 2-2z"/>
  <path fill="#422C30" d="m363 416 1-1c1 1 0 1-1 1z"/>
  <path fill="#1B0E15" d="M379 387h1l-1 1v-1z"/>
  <path fill="#D66E45" d="M370 94v1c-1 1-3 0-1 3l2 9-2 4-2 2c-3 0-3-3-3-5s0-4-3-5l-3-1-2-2c-5-6-12-7-19-10l-9-3c-3-1-5-2-4-5 2-2 4-1 6-1 11 1 20 6 31 8 5 1 9 3 14 3-1 2-3 2-5 2z"/>
  <path fill="#FD9E59" d="M379 90v2h-1c-4-5-11-4-16-6l-15-6c-2-1-3-2-3-5 4-2 6-6 11-7 0 2-1 4 2 4 9 3 16 10 22 18z"/>
  <path fill="#923722" d="m330 81-5 1-1-1h-19v-3c1-2 3-1 5-2 5-1 9-3 14-2 1 2 2 2 3 1l4-1c2 1 2 2 1 4s-3 1-2 3z"/>
  <path fill="#E76F47" d="M368 111c0-1 0-3 2-4l3-1h2c1 3-3 6 2 8l-1 3-2 2-1 1c-5-2-5-3-3-7v-2 1l-2-1z"/>
  <path fill="#AB3B22" d="m332 79-1-5 3-2v-1l4-3v2c-1 2 2 4 0 7l-6 2z"/>
  <path fill="#EA7948" d="m373 106-3 1c1-5-3-9-6-13 2-1 4 2 6 1v1c0 4 1 6 3 10z"/>
  <path fill="#B3442C" d="M338 77c1-3-3-4 0-7 1 1 5 1 4 5l-4 2z"/>
  <path fill="#E76F47" d="M377 104c-1 0 0 0 0 0zm-2 2s0-1 0 0z"/>
  <path fill="#D66E45" d="M370 96v-1l1 1h-1z"/>
  <path fill="#F5A479" d="M377 94h1v1l-1-1z"/>
  <path fill="#5B231C" d="M414 451c0-2 1-3 3-3l-2 3h-1zm-2 3 1-2-1 2zm1-2v-1h1l-1 1z"/>
  <path fill="#9E382B" d="m419 448 2-2c2-1 3 1 3 2 4 7 10 11 18 14l8 4h1l1 4c-13-3-24-7-31-19l-2-3z"/>
  <path fill="#170C1D" d="M156 205v-3l-3-36-1-2c-1-6-2-6-7-3h-2c-2-4-1-9-1-15l1-2c0-1 2-2 3-1 7 0 12-2 18-6l5-2c3 0 5 1 5 4-1 6-5 10-7 15-3 9-4 18-3 28a120 120 0 0 1 0 15l-1 8v1l-2 3h-4v-2l-1-2z"/>
  <path fill="#2F3242" d="m143 162 3-3c1-1 1-4 3-3s4 2 4 4l3 24v18c-3-10-7-20-9-31-1-3-4-5-4-9z"/>
  <path fill="#60A0BD" d="M115 344h-3l-1-9h3l1 9z"/>
  <path fill="#3A5064" d="M114 309c2 2 1 4 1 7h-3l1-7h1z"/>
  <path fill="#60A0BD" d="M112 316h2v2c-2 0-2-1-2-2zm2-7h-1v-3l1 3z"/>
  <path fill="#253146" d="m95 413-1 1-3 2a83 83 0 0 0-6 6l-4 4-3 2-1 1c-3 0-5 2-6 3-4 3-7 4-12 4 8-8 15-17 24-24l1-1h1c2 1 4 0 6-1 2-2 5-4 9-3 1 3-3 4-5 6z"/>
  <path fill="#29384C" d="m100 407-10 5c-2 2-4 3-5-1l14-11 12-7 5-2c3 1 1 2 1 4l-12 11c-2 1-3 2-5 1zm-16 4-1 1 1-1z"/>
  <path fill="#2D1F2A" d="M165 138c-6 5-13 7-22 6l-1-1c0-3 5-3 5-6l1-2h2-1c-2-1-3-2-3-4 3-2 2-4 1-6-1-7-4-14-1-21 4-1 4 1 4 4l1 10v1-15l1-5c2-2 4-2 7-2l1 1c2 3-1 5-1 9v3c2-2 3-6 4-9 1-1 2-3 4-3 4 0 4 4 5 6 2-1 3-4 6-4l3 4c3 1 7-2 9 4-2 5-8 8-12 12-1 1-2 0-3-1l-1-7v6c-4 2-4-1-6-2-1-3-1-1-2 1a10 10 0 0 1-1 3c0 2 1 5-2 5-3 1-4-2-5-5v-1l-1 4c-2 6-1 8 4 10 2 1 5 1 4 5z"/>
  <path fill="#535562" d="M146 104c0 8 1 16 4 24 2 4-1 3-4 3-1 0-4-1-3 2v4l-4-1-1-10c0-4 0-4 4-2l-2-11v-6c1-3 3-5 6-6v3z"/>
  <path fill="#2F3242" d="M139 136h9c0 4-2 6-6 7-5 0-2-4-3-7z"/>
  <path fill="#60A0BD" d="m146 101-6 6c-1-6 5-8 8-12 1-2 3-2 6 0 1 1 1 2-1 4l-1 3c-2 2-3 0-3-1-1-3-2 0-3 0z"/>
  <path fill="#2F3242" d="m153 99 1-4 1-2 2-3 3 1c2 2 2 4 0 7l-7 1z"/>
  <path fill="#21293E" d="M100 407c5-2 8-5 12-9l5-3v3c-6 4-11 10-18 13l-4 2c1-2 4-3 5-6z"/>
  <path fill="#252234" d="M123 402c0 1 0 0 0 0z"/>
  <path fill="#190816" d="m355 316-2 2-5 18c-2 3-4 5-8 3-3-2-2 1-3 2-1 6-3 12-7 17-1 3-2 5-5 7-4 1-5 5-7 7-1 2-3 3-5 2v-4l11-20c1-2 2-3 1-5h-6l-12 9c-2 1-3 2-5 1l-1-3c1-3 3-4 5-5 4-4 10-5 14-8l1-3c6-5 11-9 15-16l2-4 4-5c4 4 9 2 13 5z"/>
  <path fill="#AB3B22" d="M347 284c1 3-2 6-2 10l1 2v3l-1 3-1 1c-3 1-6-1-8 3-3 2-7 1-10 3l-2-1c-1-3 1-4 3-5a76 76 0 0 0 16-17l4-2z"/>
  <path fill="#89331F" d="M324 308h2c3 2 6 0 9-2 0-7 5-3 9-4v3l-1 4-2 3-2 2c-4 1-8 0-12 2-1 1-3 0-5-1-1-1-2-2-1-3v-1l3-3z"/>
  <path fill="#7D2C1A" d="M340 311c0-1 1-2 3-2v2h-3zm4-6v-3h1l-1 3z"/>
  <path fill="#89331F" d="m346 296-1-2 2 1-1 1z"/>
  <path fill="#190816" d="m361 318 1 1-2-1h1zm-1 0-2-1 2 1z"/>
  <path fill="#89331F" d="M346 299v-1 1z"/>
  <path fill="#190816" d="M356 316h-1 1z"/>
  <path fill="#FC7F40" d="M349 56h6l3 2-9 6c-1 0-2 1-1 2h3c-2 2-5 3-8 3 0-5 4-8 6-13z"/>
  <path fill="#7A9CB0" d="M187 49c0 2-3 3-3 7-4 6-9 12-12 19l-2 3c-1 1-2 2-3 1v-5c2-2 2-4 3-7v-2l1-1 1-2c3 0 4-3 6-5 3-3 5-6 9-8zm2-2v1-1zm1 0c-1 0 0 0 0 0z"/>
  <path fill="#67BDDA" d="M48 449c1 3 1 3-3 7l3-7zm-4 10-1 2c-1 0-1-1 1-2zm1-2-1 1 1-1z"/>
  <path fill="#333A4A" d="m170 77 1-2h2l2 3c1 2 0 3-1 5v1a10 10 0 0 1-3 3l-1 1v1c4 4 0 6-3 9l-7 14c-1 2-1 3-3 0l1-4 3-11 1-7v-3c5-1 5-6 8-10z"/>
  <path fill="#535562" d="M170 77c0 4-3 7-4 11-1 1-3 1-4-1 1-4 2-9 5-13v4c1 1 2 0 3-1z"/>
  <path fill="#67BDDA" d="m172 64-2 1v-2h1l1 1zm-2 1v2-2z"/>
  <path fill="#1B0E15" d="m159 234-1-13 4-15 1-6c4-5 10-7 15-11h1c10-3 19-5 28-4a48 48 0 0 1 24 14l2 2c2 4 4 4 8 2 5-2 11-2 16 0l1 1c0 2-2 2-3 2 2 0 3 3 6 1 2-5 4-9 8-13l8-7c7-4 13-5 21-5h14l2 1 4 1 4 2h1l2 1 2 1 4 1c4 4 7 8 7 14l-2 3c-3-1-4-3-5-5-2-3-4-5-7-6-10-7-21-7-32-5a30 30 0 0 0-19 10l-1 2c-5 5-5 11-5 17v2c0 4 2 8 4 12 3 7 7 11 14 14l13 2c11-1 21-2 29-9 6-5 6-12 7-18l1-9c2-2 4 0 6 1 1 6 1 12-2 18l-2 5-1 2-10 11c-4 3-9 5-15 6h-14c-9-1-17-1-24-7-9-8-13-17-13-29l-1-3c-5-6-10-7-17-3-3 2-5 4-4 8 2 4 1 8-1 12-1 5-5 8-7 12l-3 3-2 2c-5 3-11 6-17 7-5 1-10 2-15 1a38 38 0 0 1-23-10l-2-2c-2-3-3-8-6-11-1 0-2 0-3-2z"/>
  <path fill="#211827" d="M162 206v7c0 3-1 5-4 7h-4a39 39 0 0 1 0-9l2-1 5-1 1-3z"/>
  <path fill="#25111D" d="m159 234 4 1 2 9-2 4-7-15 3 1zm-3-1-2-2c1 0 2 0 2 2zm-2-2-1-1 1 1z"/>
  <path fill="#A4412D" d="M450 466c-10-3-19-6-25-15l-4-5v-1h2c3 1 5 3 6 5 4 7 11 8 18 10l1 1 2 5z"/>
  <path fill="#FD9E59" d="m347 284-3 2v-6c4-11 6-23 8-35 0-2 0-4 2-6 3 1 1 4 2 7 1 4 1 8-1 13v1c-1 5 0 10-2 14l-1 3-2 2-1 1v1l-1 1-1 1v1z"/>
  <path fill="#FC9052" d="M355 56c-1 1-2 3-4 0 0-3 3-4 5-5 1 0 2 0 2 2l-3 3z"/>
  <path fill="#FBE194" d="m360 207 5 4 1 8h-5l-6-2-2-1-8-4v-10l3-1 5 2 3 2 4 2z"/>
  <path fill="#3A5064" d="m161 209-4 1v-1h4zm-5-4 1 2-1-2zm-2 6v1-1z"/>
  <path fill="#2D1F2A" d="M162 90v7l-1 1h-1v-6l2-2z"/>
  <path fill="#E35224" d="m352 275 3-14v7c0 2 1 3 4 3l-4 2-1 1v1h-2z"/>
  <path fill="#7D2C1A" d="M352 275h1l-1 2v-2z"/>
  <path fill="#89331F" d="M374 119c0-1 0-2 2-2v2h-2z"/>
  <path fill="#AFCEDA" d="m172 64-1-1 1-1v2z"/>
  <path fill="#252234" d="M47 466c0-1 0-2 2-3 0 1 0 2-2 3zm5-8c0-1 0-2 2-2 0 1 0 2-2 2z"/>
  <path fill="#2F2632" d="M240 411c9 1 18 2 28 0v1c-9 2-18 2-28 0v-1z"/>
  <path fill="#1F1323" d="M245 432c-5-2-6-7-8-12 4 3 5 8 8 12z"/>
  <path fill="#2F2F3C" d="M240 410v1c-4 1-8-3-12-2h-1l-1-1v-1c5 0 9 2 14 3z"/>
  <path fill="#1F1323" d="M237 420c-3 0-4-2-4-5l4 5z"/>
  <path fill="#3A2B33" d="M268 412v-1l4-1-4 2zm9-4-1 1h-2l3-1zm-5 2 2-1-2 1zm44 2-1-1-3-1c0-2-2-4-3-5-3-1-4-3-4-7 3-5 8-9 7-17 0-3 1-4 4-5l13 7c2 1 4 3 3 5-2 4 0 6 2 9 0 4-4 4-6 7 3-2 5-5 9-5l5 8c1 3-2 4-4 5l-1 1-4 1-1 1-5 1-3 2c-6 2-6 1-7-5l-1-1z"/>
  <path fill="#1F1323" d="M306 414c-1 2 0 5-3 7 0-3 0-5 3-7z"/>
  <path fill="#190E1F" d="m312 410 3 1h-5l2-1z"/>
  <path fill="#180F20" d="m296 425-2 2c0-1 0-2 2-2zm5-3-2 1 2-1zm-3 2-2 1 2-1z"/>
  <path fill="#2D1F2A" d="M220 402a87 87 0 0 1-5-5l-1-1-1-1-1-1h-2l-2-2h-1l-1-1v-1a13 13 0 0 0-2-2l-2-1-2-2-1-2c2-3 4-5 8-5l2 6 2 3a16 16 0 0 0 7 5l2 1 8 3 13 4 6 1v2l-17-1c-2 0-5-1-6 2l-3-1-1-1z"/>
  <path fill="#452F32" d="M277 400c-5 3-11 3-17 4l-1-2c5-3 11-3 17-3l1 1z"/>
  <path fill="#6C4743" d="M259 402v1h-12v-1c4-3 7-2 12 0z"/>
  <path fill="#503131" d="M278 400h-2l1-2c2-1 3-2 5-1 0 2-2 2-4 3z"/>
  <path fill="#130B1F" d="m221 403 2 1v1l-2-2z"/>
  <path fill="#4E2323" d="m284 396 1 1h-2l1-1z"/>
  <path fill="#1C0C1B" d="M316 377c-2 0-2 2-4 4l-4 2c2-5 1-6-5-7-2-1-2-2-2-3v-16l1-2 11-8c4-2 6-6 12-4 3 2 3 3 1 6l-11 20c-1 1-2 3-1 5 4-2 5-8 10-10 1 6-4 9-8 13z"/>
  <path fill="#AF4A37" d="M302 372v4c0 4 1 9-4 11l-1 2-2 1-1 1-2 1-1 1h-3c-1-2 0-4 1-5 7-5 9-12 9-21 1-2 2-4 4-4v9z"/>
  <path fill="#4E2323" d="M288 393h3l-4 2v-1l1-1zm4-1 2-1-2 1zm3-2 2-1-2 1zm-8 5-2 1v-1h2z"/>
  <path fill="#2C2836" d="m200 384 1 1 2 1 1 1 1 1 1 1 1 1v1l2 1 2 1 1 1v1c0 3-1 3-4 2-5-2-10-5-16-6l-3-1c-5 5-8 0-12-3h-3c-3-6-9-9-12-14l-9-13c2-1 5-1 6-4 4-2 9-2 13 1 6 2 8 6 12 10 5 5 12 10 16 17z"/>
  <path fill="#130B1F" d="M190 409h1-1z"/>
  <path fill="#180F20" d="M207 409h-1 1zm0 4h-1 1z"/>
  <path fill="#211827" d="M186 401zm1 1-1-1 1 1zm0 0z"/>
  <path fill="#180F20" d="M206 406c0 1 0 0 0 0z"/>
  <path fill="#130B1F" d="m196 410-1 1 1-1zm16-15v-1l1 1h-1zm1 0 1 1-1-1zm1 1 1 1-1-1z"/>
  <path fill="#21293E" d="M91 416c0-1 1-2 3-2 0 1-1 2-3 2zm-13 12c0-1 1-2 3-2 0 1-1 2-3 2zm7-6c0-1 0-2 2-2 0 1 0 2-2 2z"/>
  <path fill="#190E1F" d="m138 352 1 1-1-1zm180 78 1 1v4h-1v-5zm-1-17c1 8 6 3 10 2 2 1 3-1 5-1l5-2 6-4 1-1a14 14 0 0 1 3-1l3 1-2 3-27 17-3 1-2-5-1-6c2 0 2-2 2-4z"/>
  <path fill="#180F20" d="M310 417h1-1z"/>
  <path fill="#522D2C" d="M396 453c1 0 2 0 2 2-1 0-2 0-2-2z"/>
  <path fill="#60302C" d="M400 450c1 0 2 0 2 2-1 0-2 0-2-2z"/>
  <path fill="#EA7948" d="M287 45h3c0 2 2 2 4 3l16 5c3 1 3 6 7 6l5 1c-1 2-4 2-2 6-2 2-2 2-5-1l-1-1 2-1h-4c-10-6-21-8-32-12-2-1-6-1-5-5 4-2 8-1 12-1z"/>
  <path fill="#D66E45" d="M315 64c1 2 2 4 5 2h2c-3 3 2 4 2 8-4 1-8 3-13 3l-1-2 1-2 3-1c-3-1-5-2-6-4v-2l1-1 2-1h4z"/>
  <path fill="#7D2C1A" d="M334 72c0 1-1 2-3 2l-4 1 2-2 2-1h3zm-7 3c-1 1-1 2-3 2v-2h3zm7-4v1-1z"/>
  <path fill="#EA7948" d="M322 60z"/>
  <path fill="#E35224" d="m287 45-12 1h-1v-1c4-2 8-1 13-1v1z"/>
  <path fill="#AB3B22" d="M274 45v1c-2 2-4 2-7 1l-1-1 2-1h6z"/>
  <path fill="#CF6D49" d="M237 48c0-3-4-3-5-7h13c4 0 7 1 8 5-3 3-7 3-11 3l-5-1z"/>
  <path fill="#AD3E2C" d="m241 48 12-1a531 531 0 0 1 13-1c-1 3-4 2-7 3l-13 2h-5v-3z"/>
  <path fill="#F4895B" d="M230 33v1c-1 1-2 2-2 0l2-1z"/>
  <path fill="#A85F49" d="M241 48v2c-1 2-2 2-4 2l-12 2-3 1-2-1-1-2c2-2 4-1 6-2 4-2 8 0 12-2h4z"/>
  <path fill="#7C4C43" d="M225 50c-1 2-3 0-5 2-5 3-10 4-15 4l-1-2c2-2 4-2 7-3l11-1h3z"/>
  <path fill="#716569" d="M173 75h-2c3-7 6-14 12-19h4l1 3-1 3c-6 3-9 9-14 13z"/>
  <path fill="#6C4743" d="m186 61 2-2c2-4 6-4 11-5a184 184 0 0 0 5 1l-3 3-8 4c-1 1-1 2-2 1h2c1-2 3-2 4 0l-1 2-3 2c-5 1-6-2-7-6z"/>
  <path fill="#8C584C" d="m199 54-11 5-1-3c2-3 5-4 8-5 2-1 2 2 4 3z"/>
  <path fill="#331920" d="m336 341 2-6c3 4 6 5 10 1 9 0 15 5 18 12 4 7 4 15-2 21l-7 8c-2-2 0-5 0-7 2-6 2-11 0-17l-2-4c-2-4-5-5-9-2l-4 1c-3-2-5-4-6-7z"/>
  <path fill="#633831" d="M379 387v1l-3 2-5 2c-2 0-3-1-4-3-2-4-4-8-2-13 0-6 3-10 7-14 3 5 2 12 5 17l2 8z"/>
  <path fill="#452F32" d="M345 408h-3c-3-2-4-5-5-9 0-2 2-3 3-4l2-2 1-1 4-4 1-1 5-2 6 14c-3 5-8 5-12 8l-2 1z"/>
  <path fill="#503131" d="M358 400c-1-5-6-8-5-15 4-3 6-8 11-9 1 6 2 11 7 16l-6 5c-2 1-4 3-7 3z"/>
  <path fill="#3B1F22" d="m348 388-5 5c-2-2-1-5 0-7l3-8 5-10c3-5 3-11 6-16 3 1 3 3 3 5 1 7-1 13-3 20-2 4-6 5-8 10l-1 1z"/>
  <path fill="#0E0417" d="m200 384-27-26c-5-3-9-8-11-14-2-7-3-14 1-21l2-1c9-6 10-7 4-18v-8c3 0 2 3 3 5 3 11 7 22 14 31 6 7 12 10 19 14 3 1 5 3 5 6v26l-3 1c-3 0-5 2-7 5z"/>
  <path fill="#301C26" d="M167 288v-9l1-1 2 1c5 9 9 17 17 24l3 4 3 2 1 1c2 2 4 2 6 5l1 1c3 3 4 7 9 6l1 1c2 5 5 7 8 9 7 3 12 8 19 10 2 0 4 0 3 3-1 2-3 2-5 2-6-2-14-1-20-6l-10-5c-8-3-13-9-18-15l-7-6-2-2-2-6-1-2-3-6-4-8c-1-1 1-3-2-3z"/>
  <path fill="#1A0D1C" d="M177 305v2l3 5 1 2c2 6 7 10 10 15 4 5 9 8 12 13 1 1 3 2 2 5-15-5-24-17-30-31l-6-20v-5c5 1 3 5 4 8 2 1 2 4 4 6z"/>
  <path fill="#0E0417" d="M169 291v3-3z"/>
  <path fill="#2F2F3C" d="M159 356c1 5-1 6-6 4l-14-18c-1-5-2-9 1-14 1-2 2-4 4-4 3 0 5 2 5 6l10 26z"/>
  <path fill="#261D2F" d="M159 356c-4-8-8-16-10-26 4 1 4 5 5 8 2 2 3 6 8 6 4 4 6 10 11 14-4-2-9-2-14-2z"/>
  <path fill="#903C2C" d="M423 445h-2l1-1 1 1z"/>
  <path fill="#F7652A" d="M355 259v-13h6c2 1 3 3 2 5-2 0-4 1-4 3s-2 3-4 5z"/>
  <path fill="#D54E26" d="m363 251-1-5 1-5 1 8c1 2 1 3-1 6v-4zm2-13h1c0 2-1 3-3 3 0-1 0-2 2-3z"/>
  <path fill="#5B231C" d="m357 245-2 1-1-7c-3-3-1-7-2-11v-11l1-2 2 1 1 4 1 6c-1 3 4 1 4 4l-3 10v2l-1 3z"/>
  <path fill="#F7652A" d="M358 242v-1 1z"/>
  <path fill="#32171B" d="M356 220c-1-1-3-2-1-4l6 2v2h-5z"/>
  <path fill="#5B231C" d="M361 220v-2l4 1-4 1z"/>
  <path fill="#AFCEDA" d="M170 278h-1l-2-2-1-3v-4l-1-2v-3a412 412 0 0 0-2-20c4 1 4 3 4 6l3 18c1 3 2 7 0 10z"/>
  <path fill="#7D2C1A" d="M156 260c-2-1-1-3-1-6 1 0 2-3 2 0l-1 6z"/>
  <path fill="#AF4A37" d="M165 264v3l-1-3h1z"/>
  <path fill="#7A392D" d="m156 248 1 1h-1v-1z"/>
  <path fill="#301C26" d="m167 276 1 1v1l-1 3-1-2v-2l1-1z"/>
  <path fill="#190E1F" d="m167 282 1-4-1 6v-2zm0-7-1 2v-4l1 2z"/>
  <path fill="#AB3B22" d="m360 207-4-1c0-3-2-5-1-8l2-10c2-14 8-26 13-39 0-2 1-4 4-4 0 7 0 14-4 21-2 5-3 12-6 17-4 8-2 16-4 24z"/>
  <path fill="#923722" d="M374 145c-4 4-6 10-8 16a380 380 0 0 0-8 34c0 2-1 3-3 4-3-1-2-3-2-5v-7l1-5v-5l1-1 3-4c4-12 8-25 9-38 1-2 2-4 5-3l1 2v5l1 1v6z"/>
  <path fill="#5B231C" d="M372 131c-2 0-3 1-4 3-1 1-2 3-5 3l-1-1v-7c1-3 3-5 6-6l3 2 1 6z"/>
  <path fill="#E35224" d="M366 190c0 6 4 12-1 18-4-6-1-12 1-18zm5-8 1 5c-3-5-4 1-6 1 0-3 1-6 5-6z"/>
  <path fill="#89331F" d="m371 125-2-1v-2l2-2 1 1-1 4zm2-6h1l-1 1v-1z"/>
  <path fill="#AB3B22" d="m374 139-1-1 1 1zm-1-5v-1 1c1 0 0 0 0 0z"/>
  <path fill="#1B0E15" d="m358 400 7-3c-1 3-5 4-7 6l-8 4h-3l11-7z"/>
  <path fill="#C26747" d="M325 81v1c-2 3 2 3 3 4 8 1 16 6 23 9 2 1 5 1 5 5h-5c-4-1-8-3-13-3l-7-2-15-6c-5-1-6-4-4-9l13 1z"/>
  <path fill="#9C4F3A" d="m338 95 18 5 2 1 1 1c-5 5-1 9 0 13v3c0 2-2 3-3 4-3 1-4-1-5-3 0-1 0-2-2-3l-1-1c-1-4-4-7-8-8-2-1-4-2-4-6 2-2 4 0 6-1-1-2-4-1-4-5z"/>
  <path fill="#B36045" d="M358 118c0-5-4-9-4-13 1-2 4 0 4-4h3c3 4 2 8 3 13-1 3-2 6-6 4z"/>
  <path fill="#CB6144" d="M363 115c-2-4-1-9-2-14 4 1 5 4 4 7 0 2 0 3 2 4v2l-2 2-2-1z"/>
  <path fill="#923722" d="M367 113v-1l1-1h2c0 2-1 2-3 2z"/>
  <path fill="#F7814A" d="M370 94h-1 1z"/>
  <path fill="#693128" d="M305 78v2l-1 1-9 6c-6 1-11-2-16-3l-2-3 3-2c5-2 10-3 15-2l2 1c-2 0-3-2-5-3 0-4 4-4 7-4 4 1 7-1 10 2 2 4-2 4-4 5z"/>
  <path fill="#B36045" d="M304 80h8c-1 5 1 7 6 8s9 2 13 5c-1 2-2 2-4 2l-3-1h-1l-3-1h-1c-6-2-12-2-17-6-2-3 0-4 2-7z"/>
  <path fill="#7D2C1A" d="M312 80h-2c5-2 10-2 15 0-4 2-8 1-13 0z"/>
  <path fill="#CB6144" d="M305 78c0-2 3-2 5-4l1 3c-2 2-3 1-6 1z"/>
  <path fill="#C35136" d="M367 113c1 0 2 0 3-2h1c0 3-4 6 2 8v1l-1 1-2 1c-5 1-5-3-5-6l1-2 1-1z"/>
  <path fill="#923722" d="M371 111h-1 1z"/>
  <path fill="#1C0C1B" d="M165 119v-2c5-3 4 3 7 4l1-3c0-4 0-7 2-10 0 4 0 8 2 12 3-5 8-7 12-12 4-7 18-15 25-14 1 3-1 3-3 4l-5 3c-5 3-8 6-8 11l6-1h5c1 3 5 5 5 9l-13 1h-3c-3 1-7 2-9 5-5 3-8 6-11 10-1 2-2 4-4 4-1-2-2-3-5-4-6-4-6-4-4-11v-6z"/>
  <path fill="#EC916B" d="M173 141c5-6 8-12 14-16 14-5 27-4 40-2 2 0 4 1 4 4l-4 2c-8-1-17 0-25 1-11 0-19 5-25 14l-5 10c-1 2-2 4-5 4l-1-4 7-13z"/>
  <path fill="#1F1323" d="M165 119c1 3 2 6 0 9-1 2-1 3 1 4 1 1 3 1 3 4l-4 2c0-4-3-3-5-4-5-1-8-7-5-11 2-2 2-4 2-6l3 6c1 1 2 2 3 1 2 0 1-1 1-2-1-1-1-2 1-3z"/>
  <path fill="#AFCEDA" d="m166 154 1 4 1 4-1 27c0 4-1 6-3 8-1-15-4-29 2-43z"/>
  <path fill="#E9A482" d="m163 197 3-6c2-2 3-4 6-5l1-1 5-1 2 2v2l-2 2c-4 4-10 5-14 11l-1-3v-1z"/>
  <path fill="#6C4743" d="m163 198 1 3-2 5 1-8z"/>
  <path fill="#3C252C" d="M214 95c-6-1-10 2-14 5l-11 8c-1-2-2-3-4-2l-5-1c-1-2 0-3 1-5l9-7c3-1 5-3 8-3 4 2 8-1 12-2l4-1c4 0 5 1 3 6l-1 1v1h-2z"/>
  <path fill="#3A2B33" d="M170 86h1l2-2c1-1 2-3 4-3l2 3v1l-1 2-3 8 3-2h4c2 2 1 3 0 5l-2 1-1 1c-4 1-5 6-8 8-2-3 0-7-4-10l3-4c1-2 1-3-1-5v-1l1-2z"/>
  <path fill="#2F3242" d="M146 101c1-2 1-4 4-5 1 2-1 5 2 7v19c-3-4-2-8-3-13 0-2 1-4-3-5v-3z"/>
  <path fill="#543738" d="M179 100v-1l1-1 3-4 1-1a18 18 0 0 1 2-3h3l2 4c-4 3-9 6-11 11-3-1-1-3-1-5z"/>
  <path fill="#1F1323" d="M173 118v1c0 2 2 4 0 5-3 1-3-2-4-4 0-2-1-3-4-3v-6c3 2 5 2 5 5 0 2 1 2 3 2z"/>
  <path fill="#333A4A" d="M148 136h-5l-1-4c0-1-2-3 0-4l4 2 4 5v1h-2z"/>
  <path fill="#3D8BAE" d="m160 99 2-1c0 3-2 6-4 10v-1c-1-3 1-5 2-8z"/>
  <path fill="#3A5064" d="M158 107v1l-1 4 1-5z"/>
  <path fill="#2F3242" d="M150 136v-1c1 0 2 0 1 1h-1z"/>
  <path fill="#543738" d="M178 107c0 1 0 0 0 0z"/>
  <path fill="#381B22" d="m241 345-1-2c-10-2-17-7-25-12l-5-7c4-3 8-1 13-1 5 2 11 5 17 5s11 3 17 5l5 2c14 3 28 6 42 5 6-1 11-3 17-1-3 5-9 5-14 8-6 3-13 3-19 3-5 1-10 0-15-1h-1c-8 4-16-1-25-1-2 0-4 0-6-3z"/>
  <path fill="#2D141D" d="m241 345 18 3h13c2-1 6-1 8 2h4c7-3 15 0 23-3l-5 4c-3 4-8 6-13 8a58 58 0 0 1-4 1l-3 1h-1c-2 1-4 2-7 1-4-2-8-1-12-1l-9-1-4-1c-9 0-16-4-24-8-5-2-9-5-10-11l6 2c6 3 13 3 20 3z"/>
  <path fill="#401F23" d="m321 339-15 2c-9 1-18 2-27-1l-12-2c-7-1-13-4-19-7-3-3-6-1-9-2-6 0-11-2-16-5 4-3 10-3 15-4 8 0 15 2 23 3h6l4 4c9 2 17 7 26 7 7 0 15 2 22-2 3-2 3 2 3 5l-1 2z"/>
  <path fill="#452F32" d="M348 378c-2 5-5 9-5 15l-3 2c-2 2-3 3-6 3-3-3-7-5-3-11 1-1-1-2-3-3l-12-7c2-5 6-7 8-13l5-6 2 2c2 7 8 12 14 15l3 3z"/>
  <path fill="#4E2323" d="m322 337-2-5c-2 5-7 4-11 4-9 0-18-1-27-4-4-2-8-4-12-3-2 0-2-3-3-5l1-3h10l1 1 2-1 1 1h5l10 4c4 2 7-2 10-2s5 5 9 3 10-1 14-4h1l1 1 1-2c1-2 2-3 4-2 0 4-3 5-5 7l-10 10z"/>
  <path fill="#503131" d="M348 378c-8-3-14-7-17-15l-2-5 7-17c2 1 4 3 5 6 1 5 1 9 4 13l7 8-4 10z"/>
  <path fill="#B3442C" d="M284 359h1l2-1 15-7v12l-3 4c-5 4-12 6-19 7-4-5-1-9 2-14l2-1z"/>
  <path fill="#693128" d="m337 320-3 2c-1-1-2-1-2 1h-1c-9 2-19 2-28 1l-4-1c-1-2 1-3 2-3l7-3c10 1 18-1 27-2h4v1l-2 4z"/>
  <path fill="#441F1D" d="M339 316v-3l1-2h3c0 2-1 4-4 5z"/>
  <path fill="#FDD8B1" d="m344 286-1 2c-4 4-9 9-15 11-6-2-9-7-11-12l-5-11c-1-3 2-5 2-9-5 5-10 5-15 1l-10-4c-2 0-4-1-4-3 2-2 5-2 7-1h11l11-1h4c3 0 5-3 8-2l8 17c2 4 5 9 9 12h1z"/>
  <path fill="#F19769" d="m328 298 11-8 4-2c-3 5-7 9-12 13l-7 7-2 3c-2 2-4 1-6 4l-1 1h-3l-2 1-2 1a55 55 0 0 1-18 4h-18l-3-2 1-3h12l22-5 14-7 10-7z"/>
  <path fill="#9E382B" d="M335 306c-2 4-6 5-9 2 2-2 5-3 9-2z"/>
  <path fill="#7D2C1A" d="M311 315h3c2-1 4-2 7-1s6 2 9-1h9v2c-9 4-19 3-29 5l-1-2v-1l1-1 1-1z"/>
  <path fill="#AB3B22" d="m321 314-6 1c0-4 4-4 7-4l-1 3zm1-3c0-1 0-2 2-3 0 1 0 2-2 3z"/>
  <path fill="#543738" d="m186 61 2 2c0 3 2 2 4 3v2l-1 1-3 2-1 1c-5 2-7 6-12 7l-2-4c3-5 7-10 13-14z"/>
  <path fill="#2D1F2A" d="M175 79c4-3 7-6 12-8l1 1-2 3-2 1-1 1a21 21 0 0 0-2 3c-1 1-1 2-3 2l-5 2 2-5zm-2 5c0 1 0 2-2 2l2-2z"/>
  <path fill="#535562" d="m170 86-1 2 1-2zm-1 2v1l-1-1h1z"/>
  <path fill="#7A9CB0" d="M166 81h1-1z"/>
  <path fill="#FCD0B2" d="M174 186h-2c-4-1-4-5-3-8 1-11 2-23 7-34 5-10 13-15 24-16v4c-4 2-3 4-1 7l2 5c1 2 2 3 5 4 14 3 26 10 36 21l8 5 10 5c3 3 6 0 9-1l3 1-2 4-1 3c-6 5-7 12-11 18h-18c-3-2-3-6-5-9l-3-5-6-8-2-3-4-9c-4-3-7-1-11-1-6 1-11 2-17 5l-2 2-2 1-7 6c-3 0-5 1-7 3z"/>
  <path fill="#EFBFA2" d="M212 250c-9 4-19 4-29 1-7-2-12-7-14-15 1-5 5-6 8-9l11-4h3a61 61 0 0 0 8 2h11c3 3 5 6 5 10l-1 2-3 1 3 1c1 4 1 8-2 11z"/>
  <path fill="#FDDAB7" d="M328 240c-8 8-18 10-29 10l-6-9v-3c4-2 0-4 0-6-1-3 1-6 3-9l1-1 13-2h1l5-2h3c9 3 13 11 9 22z"/>
  <path fill="#FDDFB6" d="M349 202h-3l-4 1h-5c0-6-4-9-7-12-2-4 0-8-2-12 0-2 2-3 3-4 6-7 7-14 3-22v-5c2-2 4-2 7-1 5 7 5 15 5 23 1 9 1 19 4 28l-1 4z"/>
  <path fill="#E79572" d="m208 257 17-7v5l-8 6c-11 5-23 9-35 7l-8-7c-1-2-3-4-1-7 4-1 6 2 9 3 9 2 17 2 26 0z"/>
  <path fill="#EC916B" d="M170 203v-1l18-9c8-2 16-3 25 0 1 2 2 4 1 6l-2 2-6-2h-5l-3 1a34 34 0 0 1-3 0l-1 1a20 20 0 0 0-2 2l-1 1-4 4-1 1-16-4v-2z"/>
  <path fill="#32171B" d="m272 180-1-1c-4-5-3-10 3-12 3-1 6 0 9 2 1 4-3 2-5 4 10 3 20 3 29 4 0-1-2-2-1-4h4l7 4a21 21 0 0 1 3 1l4 7-1 2-5-2-2-1-3-1h-2l-2-1h-11l-17 1c-3 0-6 0-9-3z"/>
  <path fill="#FDD1AC" d="m296 223-1 3c-2 6-1 8 4 10v1c-6 1-6 1-3 6l3 6c-5 1-10 1-15-1-2-3-1-7-1-10-1-2 0-3 4-3 1 1 0-1 0 0 0 0 0 1 0 0-4 0-5-3-3-6l3-7c3-1 6-1 9 1z"/>
  <path fill="#F5A479" d="M273 199c5-5 10-9 18-10 2 1 3 2 3 5v1l-1 1-2 1a261 261 0 0 0-2 2l-2 1-3 4a10 10 0 0 1-2 1l-1 1-12 15h-3v-1c2-6 2-13 5-19l1-1 1-1z"/>
  <path fill="#F0B290" d="M214 236c1-4-4-6-3-9 3-4 7-2 12-2 4 0 5 4 7 7-3 9-9 15-18 18l2-11c1-2 4-2 6-4-2 0-3 2-6 1z"/>
  <path fill="#F3C1A0" d="m287 223-1 5c-3 5-3 6 3 7-1 2-3 1-4 1s-2 1-1 2c2 3 0 6 0 10-7-3-11-7-14-14l6-10c2-2 4-1 6-2l5 1z"/>
  <path fill="#F5AF83" d="m293 195-2-6c12-3 23-3 34 5 1 2 0 4-2 5s-3 3-4 6c-4 0-3-3-5-5l-2-1-3-2c-5-3-9-3-14-2h-2z"/>
  <path fill="#FDD8B1" d="M331 199c2 1 2 4 3 6l2 1 1 3v1l-1 2v10c-2 3-4 2-6 0l-9-9c-2-2-3-4-2-6 3-4 7-6 12-8z"/>
  <path fill="#E9A482" d="M304 261c-6 2-12-1-19 1l-2 1-5-1c-2-1-5-2-6-4-1-3-1-7 1-10 7 5 14 6 23 7 1 2 3 2 5 3 2 0 3 1 3 3z"/>
  <path fill="#F8C094" d="m353 216 1 6c-8 3-10 10-12 16l-4 4c-2 1-3 0-3-3l1-2 2-4c2-6 2-13 2-19 1-2 3-2 4-2l9 4z"/>
  <path fill="#DE8E6D" d="M173 254c0 3 2 6 4 8 2 1 3 2 4 5-3 3-6 0-10 2l-2-1c-2-5-2-11-3-17l-2-7-1-9c3 3 3 8 6 11l1 2 1 1 2 5z"/>
  <path fill="#E8B193" d="m166 227-1-12 2-6c3-1 5-1 7 1l12 6 1 3c-6 3-13 4-18 8h-3z"/>
  <path fill="#F5A479" d="m227 249 2-3 6-7h3l1 1c1 3 3 2 5 2l6-1c4 2 10 1 13 6l-2 2c-5 1-10 4-14 2-6-2-13-1-19 0l-1-2zm-14-48v-7c11 4 17 11 19 23-2 1-4 0-5-2l-6-4-2-2-2-3-4-5z"/>
  <path fill="#F8C094" d="M321 212c5 2 7 6 10 9 1 2 2 3 4 1 0 7-1 13-6 18-2-6 1-12-4-17l-6-4c-1-2 1-4 2-7z"/>
  <path fill="#D67B5C" d="M273 248c0 3 1 6-1 10h-2v-5c0-3-1-4-3-5-1-4-4-5-6-7-2-1-2-3-3-5-1-5-3-10-2-16 1-2 1-4 4-4 2 2 2 4 2 6-1 10 3 19 11 26z"/>
  <path fill="#C35136" d="M208 187c-10-2-19 0-29 3v-2c4-4 9-6 15-7 8-2 16-3 25-3 2 5-1 6-4 7-2 1-4 0-7 2z"/>
  <path fill="#EC916B" d="m260 216-3 4c-4 2-9 0-14 1h-2c-2-3-1-5 0-8 6-5 12-4 19 3z"/>
  <path fill="#FDD8B1" d="m323 186-4-7-1-1-7-4c-1-3 1-3 3-3 5 1 10 2 15 7 3 4 2 8 1 12l-3-1-3-2-1-1z"/>
  <path fill="#E88C66" d="M221 210c5 0 6 5 10 7 1 5 1 10-1 15-4 0-3-5-6-6l-1-1v-5l-2-6-1-1 1-3z"/>
  <path fill="#DD5F3B" d="M208 187c0-2 2-3 4-3 3 0 6-2 8-5h5l1 2c1 5 0 8-4 12-4-3-9-5-14-6z"/>
  <path fill="#E88C66" d="M258 204c2-7 4-13 10-19 2 2 2 5 2 9l-8 13-4-2v-1z"/>
  <path fill="#DD5F3B" d="M272 180c8 2 17 0 25 1l1 2c-7 1-14 2-20 5-3-1-7-1-9-5l3-3z"/>
  <path fill="#F4895B" d="m222 193 4-12 6 8c1 4 5 7-1 11l-9-7z"/>
  <path fill="#F5AF83" d="M304 262c0-2-2-3-3-3-2 0-4-1-5-4l15-1c3 1 5 2 4 6-3 2-7 0-11 2z"/>
  <path fill="#190816" d="M345 213h-4c-2 2-4 2-5-1v-4l-1-1v-2c1 0 2 0 2-2l4-1c1 2 4 0 5 3v7l-1 1z"/>
  <path fill="#FBC9A6" d="M331 199c-2 4-8 5-12 8l-1-2c0-3 1-5 4-7 1-1 3-2 3-4 3 1 4 3 6 5z"/>
  <path fill="#E79572" d="M276 224c-1 4-1 8-6 10-3-4-4-8-4-13h3l7 3z"/>
  <path fill="#F8C094" d="M315 260c0-3-1-4-4-6 5-1 10-2 15-5 1-1 2-1 3 1s0 3-2 4l-8 6h-4z"/>
  <path fill="#F5A479" d="M231 200c4-3 0-7 1-11 4 4 6 10 8 15-6 6-6-1-9-4z"/>
  <path fill="#F3C1A0" d="M329 251c0-2-1-2-3-2l8-10 4 3c1 5-3 7-6 10-1 1-2 0-3-1z"/>
  <path fill="#E9A482" d="M173 254c-1-1-2-2-2-5 11 9 23 10 37 8-12 3-23 4-35-3z"/>
  <path fill="#E76F47" d="M269 183c2 3 6 2 8 5l-6 6c-3-2-2-5-3-9l1-2z"/>
  <path fill="#DE8E6D" d="M241 220h1c2 6 0 11-3 17l-3 1v-3c1-4 3-8 1-13 0-2 2-2 4-2z"/>
  <path fill="#C98169" d="M166 227h2c3-1 7-2 10 1-3 3-7 4-9 8-2-2-2-5-3-9z"/>
  <path fill="#D67B5C" d="m188 193-1 3c-6 1-10 5-16 6 4-5 9-8 17-9z"/>
  <path fill="#E9A482" d="M270 201c0 6-1 12-4 19-1-7 0-13 4-19z"/>
  <path fill="#1F1323" d="m258 205 4 1c0 4 0 6-4 3-2-2-5-1-8-3l8-1z"/>
  <path fill="#D67B5C" d="m241 220-4 2c-2-4 0-7 3-9 3 2 1 4 1 7zm-73-10-3 5c-1-5 1-9 5-12v2c1 2 0 3-2 5z"/>
  <path fill="#A85F49" d="m235 235 1 3v2l-6 6c0-4 4-7 5-11z"/>
  <path fill="#AF4A37" d="M298 183v-1l9-1v2h-9z"/>
  <path fill="#6E332C" d="M227 249v1l1 1-1 2v2l-1 3c-2 0-2-1-2-3l1-5 2-1z"/>
  <path fill="#E57B4F" d="M307 183v-1l3-1 1 1h2v1h-6z"/>
  <path fill="#F3C1A0" d="M338 233c0 1 1 3-2 4l2-4z"/>
  <path fill="#B36045" d="M313 184v-2c1 0 2 0 3 2h-3z"/>
  <path fill="#3B1F22" d="m324 187 3 2c-1 0-2 0-3-2zm-9-3h1c1 0 2-1 2 1l-3-1z"/>
  <path fill="#2D141D" d="M179 188v2h-1l1-2z"/>
  <path fill="#3B1F22" d="m323 186 1 1h-1v-1z"/>
  <path fill="#E9A482" d="M271 200v1-1zm2-1-1 1 1-1zm-103 49-1-1 1 1zm1 1-1-1 1 1z"/>
  <path fill="#FEE4B6" d="m331 252 7-10c2-3 4-6 4-10 2-6 5-9 11-9l1 2v13c-2 16-4 32-10 48-5 0-7-3-8-6-4-7-9-14-10-23 1-3 2-4 5-5z"/>
  <path fill="#FD9E59" d="M349 202c-4-12-4-25-5-38l-3-16 3-2 2 2c3 8 4 17 5 26l1 10v2l2 13-1 5c-1 0-3 0-4-2z"/>
  <path fill="#7D2C1A" d="m353 204-2-12v-6c1-1 2 0 3 1 3 1 2 3 1 5s-2 4 0 7c-1 2 5 3 1 7l-3-2z"/>
  <path fill="#9F5B49" d="m345 214 1-2 7 3v1l-8-2z"/>
  <path fill="#1B0E15" d="M346 205c-1-1-4 0-5-3h4l1 3z"/>
  <path fill="#2D1F2A" d="m334 398 6-3h1l-4 4-9 6c-1 1-2 3-3 1-2-1 1-2 2-3l7-5z"/>
  <path fill="#1B0E15" d="M342 408h2c-1 3-4 3-7 4l5-4zm-5 4-5 2c1-2 2-2 5-2zm-5 2c-1 1-3 2-5 1l5-1z"/>
  <path fill="#9E382B" d="M209 372a1790 1790 0 0 0 1-19l23 7c8 3 16 4 24 4h4c1 2 1 4-1 5l-2 2c-7 2-12 6-18 11-8 2-15-1-22-1-4 0-6 1-6 4 0 2 0 2-2 3l-2-3v-7l1-3v-3z"/>
  <path fill="#C27B65" d="m277 398-1 1-17 3h-12l-6-1c-2-2-6-3-7-8 2-4 6-4 10-6 3-2 7-4 10-8l9-1 2 3c-2 7 2 10 8 13 2 1 4 1 4 4z"/>
  <path fill="#AF4A37" d="M254 380c-1 4-4 5-7 6l-12 7-7 4-9-3-1-1h-1l-6-7c0-7 0-7 7-6l22 1c4-2 9-3 14-1z"/>
  <path fill="#B36045" d="M228 397c0-4 4-3 7-4 0 4 5 4 6 8-4 0-8-2-13-4z"/>
  <path fill="#A4412D" d="M211 386c2 2 5 3 6 7-3-1-5-2-7-5l1-2z"/>
  <path fill="#2D141D" d="M208 378v7c-2-1-1-3-1-6l1-1z"/>
  <path fill="#282232" d="M209 393c-2 1-2 0-2-2h1l1 2z"/>
  <path fill="#130B1F" d="m209 393-1-2c1 0 2 0 3 2h-2z"/>
  <path fill="#C98169" d="M278 398c-3-3-7-3-9-5-6-4-7-6-5-13 4-5 10-5 16-6l19-7c1 9-1 17-9 22l-2 4-1 1-2 1-2 2-5 1z"/>
  <path fill="#2D141D" d="M302 363v-6c2 4 1 9 1 14h-1v-8z"/>
  <path fill="#190816" d="M312 376v1l-1-1h1z"/>
  <path fill="#543738" d="M302 371h1l-1 1v-1z"/>
  <path fill="#AF4A37" d="m285 395 2-1v1h-2z"/>
  <path fill="#D77149" d="M259 48c2-2 4 0 7-2h9c0 2 2 3 4 3l22 7c4 2 8 3 11 7v1l-1 1-2 1-1 1-2-1c-6-2-13-2-18-8-2-2-7-1-11-2h-7c-4-3-9-3-11-8z"/>
  <path fill="#C35136" d="M312 64v-1h3v1h-3zm3-1 1-1v1h-1zm-7 3h1c0 4 3 4 7 5-1 2-2 2-4 2l-2 1-10-2 3-3 1-1 1-1 3-1zm2-1 2-1c0 1 0 2-2 2v-1z"/>
  <path fill="#693128" d="m310 74 2-1-1 1h-1z"/>
  <path fill="#903C2C" d="M310 65v1h-1l1-1z"/>
  <path fill="#C35136" d="M316 71s0-1 0 0z"/>
  <path fill="#C26747" d="M258 48c3 4 8 3 11 7-7 5-17 3-24-3v-2l13-2z"/>
  <path fill="#C27B65" d="M245 50v1c-1 2-4 2-6 3l-13 2-2-1v-2c6 0 11-2 17-3h4z"/>
  <path fill="#8C584C" d="m201 57 3-2 16-3v2c0 3-2 2-4 3h-3l-1 1-3 1-2 1h-3c-1-1-3-1-3-3z"/>
  <path fill="#8D8182" d="m214 56 6-2h4l1 1-3 2-9 3-1-1v-2l2-1z"/>
  <path fill="#8C584C" d="M224 54h-2l2-1v1z"/>
  <path fill="#7C4C43" d="m201 57 3 2v1l-1 1-1 1a65 65 0 0 1-3 2h-1l-1 1-1-1c0-3-2-1-4-1 2-4 5-5 9-6z"/>
  <path fill="#452F32" d="m191 68 1-2 4-1c0 3-1 3-3 4l-2-1z"/>
  <path fill="#7C4C43" d="m192 63-1 1v-1h1z"/>
  <path fill="#452F32" d="M196 64h2l-1 1h-1v-1z"/>
  <path fill="#58322F" d="M352 368c-3 0-6-2-7-5-2-5-7-9-4-16l5-1c5-4 10-2 11 6-1 5-1 11-5 16z"/>
  <path fill="#29111B" d="M341 395h-1c0-1 1-2 3-2l-2 2zm7-7 1-1-1 1z"/>
  <path fill="#25111D" d="M261 366c-18 1-34-6-51-13l-1-1c1-3-3-3-4-5-3-5-6-9-11-13l-2-1c-3-6-9-10-11-17v-2c3 1 5 3 7 6 6 7 12 14 21 16 2 0 4 2 6 4 2 5 6 9 12 11l24 7c7 2 14 0 22 1l2 2c-1 2-2 3-4 3l-7 2h-3z"/>
  <path fill="#2D141D" d="M209 372v3-3zm0-20 1 1h-1v-1z"/>
  <path fill="#E8B193" d="m169 269 2-1 5 8c6 5 12 6 20 6l1 1c1 2 0 2-1 3-2 3-2 5 3 6l13 1 8-1c6 8 13 10 22 9 2 3 0 6 0 9l-1 2c-3 2-5 3-8 3l-19-1c-5-1-9-4-13-6l-14-4c-9-6-14-15-17-25l-1-10z"/>
  <path fill="#DE8E6D" d="M213 313h20c3 0 5 0 8-2 1 3 0 5-3 6l-5 2-1 1h-9l-1-1-2 2-15-2-2-1-3-3-7-5c4-2 7 1 11 1l9 2z"/>
  <path fill="#E9A482" d="M213 313c-6 3-11-1-16-2l-3-1h-1l-3-2-3-4c4-2 7 0 11 1l15 8z"/>
  <path fill="#7A392D" d="M237 317c2-1 3-3 4-6l2-1c1 5 0 8-5 11l-15 3h-13v-3c3-3 6 0 10-1l2-1h1l1 1 8-1h1l4-2z"/>
  <path fill="#381B22" d="M210 321v2c-6 3-7-3-10-6h3l1 1c2 2 5 0 6 3z"/>
  <path fill="#25111D" d="M177 305c-3 0-3-3-4-6 4 0 3 3 4 6zm3 7c-3 0-3-2-3-5 3 0 2 3 3 5z"/>
  <path fill="#C26747" d="m203 316-2 1-1-2 3 1z"/>
  <path fill="#DE8E6D" d="M190 308c1 0 2 0 3 2l-3-2z"/>
  <path fill="#F8C094" d="M354 226v-1 1z"/>
  <path fill="#89331F" d="m363 136 5-2c2 6-1 12-2 17-2 8-4 16-8 23 0 1-1 2-3 2-1 0-2-1-2-3 4-9 6-18 8-27l2-10z"/>
  <path fill="#5B231C" d="m354 173 1 3v6l-1 5-2-1-1-1-1-11c-2-2-1-5-1-7 0-7-3-12-4-19l1-1 1 1 1 1a135 135 0 0 1 1 3l5 8v13z"/>
  <path fill="#7D2C1A" d="M355 182c-2-1 0-3 0-5v5z"/>
  <path fill="#763224" d="M354 173c-2-4 1-8-1-13l2-13 1-9c1-2 3-3 6-2h1c1 6-1 11-2 16-1 7-3 14-7 21z"/>
  <path fill="#441F1D" d="M362 136c-2 0-3 0-5 2l-3 2c-4 1-6 4-7 8h-2l-1-2c-2-1-2-3-3-5l-1-4c1-3 3-4 5-5l16-4h2l-1 8z"/>
  <path fill="#A4412D" d="M363 128h-1c-2 1-2 0-2-2-1-2-2-2-4-2l-1-2c0-2 3-2 3-4 3 2 3-2 5-3h3c0 3 1 5 4 7l-1 2c-2 0-4 2-6 4z"/>
  <path fill="#7A392D" d="m326 93 5 1 7 1c1 3 4 3 5 4 1 0 3 1 2 2l-2 1-6-1c-5 2-10 0-15-1l-20-4c-2-2-7-1-6-6 2-2 4-1 7 0h1c1 0 2 3 3 0 4-1 8 2 13 2l3 1h3z"/>
  <path fill="#93513E" d="M302 94c10 3 20 5 31 6l4 1c0 3 1 4 4 4 4 2 8 4 8 10l-4 2h-2l-1-1c0-6-5-8-11-9-13-5-27-7-40-10-3-1-6-1-6-5l4-1c5 1 8 3 13 3z"/>
  <path fill="#854334" d="m332 106 4 1c5 1 8 3 7 9h2l4-1h1l2 3 3 4 1 1c0 3-3 3-6 5l-2-1c-2-2-1-5 0-7l-6 3-5-1c-2-2 1-4-1-6-1-3-4-6-4-10z"/>
  <path fill="#93513E" d="M352 118c-1 0-2-1-2-3 1 0 2 1 2 3z"/>
  <path fill="#923722" d="m367 113-1 1 1-1zm-1 2h-1l1-1v1z"/>
  <path fill="#4E2323" d="m304 91-7-1-15-3c-3 0-5-1-7 1-3 2-5 1-8 1l-7-2-3-1c0-2 1-2 3-2 3-1 6-3 10-3h4-3c-1 1-2 0-2-1 1-3 4-3 7-4l9-3h3l1 1 1 1h2l3-1 2 1c2 2 2 2 5 2 0 2-2 2-3 2-6-2-13-1-19 1-1 0-2 0-2 2l2 1c5 0 9 3 15 3l2-1c2 3 6 3 7 6z"/>
  <path fill="#9C4F3A" d="M297 86h-2c1-4 5-4 9-6 1 3-2 4-2 7-2 2-3 0-5-1z"/>
  <path fill="#5B231C" d="M289 75v-1c1-3 3-3 5-4 3-1 6-3 10-2 0 2-2 3-4 4-3 0-5 0-8 3h-3z"/>
  <path fill="#693128" d="m297 86 5 1 18 5c-4 1-8-2-13-1h-3c-2-2-5-1-7-5zm29 7h-3 3zm-3 0-3-1 3 1z"/>
  <path fill="#E76F47" d="M231 127c-4-4-9-4-14-4-10-1-19 0-29 2 2-3 5-4 9-5l2-1h15c3-2 5-1 9-1l7 1h3c5 1 11 1 16 3h2c10 2 19 4 27 9 1 1 3 1 4 4-1 3-4 2-7 3s-7 0-10-1c-6-3-11-5-17-5h-4l-13-5z"/>
  <path fill="#3B1F22" d="m209 111-5 1c-1-2 0-3 2-4 2-2 5-3 8-3h1c3 2 6 1 8 1l17 1c7 0 13 0 19 4-1 3-3 3-5 3-8-1-15 0-22 1h-2c-4 0-8 0-12-3-2-1-6 1-9-1z"/>
  <path fill="#25111D" d="M209 111c7-3 13 3 21 3l5 3c1 0 2 1 1 2 0 2-1 1-3 1h-10l-9-1c-2-2-6-3-5-8zm5-5c-4 1-8 1-10 6-3 2-6 1-11 2 5-5 5-12 12-13 4 1 7 0 11-1l3 1c1 4-3 3-5 5z"/>
  <path fill="#301C26" d="M216 101c-3 0-7 6-11 0 2-3 5-4 9-6h1l1-1c2-2 5-3 8-2l1 5-1 1c-2 2-5 2-8 3z"/>
  <path fill="#FED6B8" d="M231 127c4 0 9 1 13 3 6 10 13 19 21 27l6 5c2 1 4 2 4 5-5 2-6 3-5 11l-4 3c-2 1-4 2-5 0-7-6-17-7-23-15-5-7-14-10-23-14-3-1-6-4-10-3-2 0-3-1-4-3-3-2-3-7-5-10-4-5 5-3 4-8 10-1 20-2 31-1z"/>
  <path fill="#EEB999" d="m176 144 1 2c-4 9-5 18-7 28 0 4 0 8 2 12-1 3-3 4-6 5 0-11-1-21 1-33 3 0 3-3 4-5 1-3 2-6 5-9z"/>
  <path fill="#1C0C1B" d="M160 129v1l-1-1h1z"/>
  <path fill="#2D141D" d="M225 179h-5c-14 1-28 2-41 9v-3c-1-1 0-2 1-3l8-6 1-1 2-1c4 3 8 3 12 1l18-6 4 10z"/>
  <path fill="#EEB999" d="m180 182-1 3-5 1c1-3 3-4 6-4z"/>
  <path fill="#6C4743" d="M191 94c-1-1-3-2-3-4l1-3c5-3 9-7 15-9l2-1 2-1h1l3 1 4 7c-3 3-7 3-9 4l-9 3-7 3z"/>
  <path fill="#503131" d="M198 91c5-5 11-5 17-7 4-2 8-2 13-2 3 5 3 5-4 9l-2 1c-1 0-1-2-2 0-1 1-3 2-5 1 0-2 4-2 2-4-1-2-3 0-5 0l-10 3c-2 1-3 1-4-1z"/>
  <path fill="#1B0E15" d="M221 91h2c8-4 17-7 27-6v3c-8 3-17 4-26 4l-8 3-1-1v-1c2 0 3 0 5-2h1z"/>
  <path fill="#1C0C1B" d="m215 94 1 1h-1v-1z"/>
  <path fill="#543738" d="M205 79c-6 1-10 6-15 9l-2 1-1 1a39 39 0 0 0-3 3l-1 1h-5c-1-3 1-4 2-6l7-7 14-7c2 2 4 1 7 2l-1 2-2 1z"/>
  <path fill="#6C4743" d="M188 82c-3 4-8 7-10 12-2 1-2 4-5 5 2-5 1-9 4-13l1-1 3-5c2-2 3-5 7-5v7z"/>
  <path fill="#716569" d="m181 80-3 5v-3l2-3 1 1z"/>
  <path fill="#3A2B33" d="m187 90 1-1v1h-1zm-1 1 1-1-1 1zm-1 1 1-1-1 1zm-1 1 1-1-1 1zm-1 1 1-1-1 1z"/>
  <path fill="#AD3E2C" d="M270 364a169 169 0 0 1 12-4c0 4-4 8-2 14l-16 5-9 1c-5 0-10 2-15 1 4-4 7-8 12-10 4-1 7-1 9-5l3-1 6-1zm14-5-2 1 2-1zm3-1-1 1 1-1z"/>
  <path fill="#4A2526" d="M238 321c3-3 4-6 5-11v-3a35 35 0 0 0 1-3l1-2 1-1c3-2 6-2 9 0l1 1c2 5 1 10 6 14h2l2 3-1 4c0 2 1 5-3 2-5-2-11-2-16-3l-8-1z"/>
  <path fill="#7A392D" d="M265 323v-4l2-1 2 4-2 2-2-1z"/>
  <path fill="#5B231C" d="M289 321h2l8 1h24l8 1c-2 2-3 6-8 3l-3 1c-3 3-7 3-10 1-2-2-4-2-7-1-3 2-6 2-8-1-2-2-6 0-8-3 0-1 0-2 2-2z"/>
  <path fill="#7F372C" d="m289 320-2 3h-6c2-3 5-2 8-3zm-20 2-2-2c1-2 2-1 3 0l2 2h-3z"/>
  <path fill="#5B231C" d="M332 323v-2l2 1c-1 1 0 3-2 1z"/>
  <path fill="#7F372C" d="M273 322c0-1 1-2 2 0h-2z"/>
  <path fill="#5B231C" d="M282 323h2l-1 1-1-1z"/>
  <path fill="#7F372C" d="M278 322h-1 1zm0 0h1-1z"/>
  <path fill="#A4412D" d="M299 322h-8c6-3 12-3 18-5v1l-10 4z"/>
  <path fill="#441F1D" d="M283 262h2c6 1 11 3 16 7 6 3 11 0 15-5 0 5-3 8-4 12 0 3-2 5-5 7-5 3-10 6-16 3l-1-5h-12c-3 0-6-1-7-4 2-4 6-3 10-4h6l3-2c0-2-1-2-2-3-2-2-6-2-5-6z"/>
  <path fill="#FDD1AC" d="m307 282 5-6c3 2 5 6 6 10 2 5 6 9 10 12l-8 7c-6 2-10 1-13-3-3-3-6-6-6-11 1-4 3-6 6-9z"/>
  <path fill="#FBC9A6" d="M319 260c0-4 5-4 7-7v4l-7 3z"/>
  <path fill="#F3C1A0" d="M305 313c-7 3-14 4-22 5l-14-11c-3-2-6-5-7-8l-7-8c-2-2-4-4-2-7l4-1c5 0 9 2 13 4l16 4 10 14c3 3 7 4 9 8z"/>
  <path fill="#EEB999" d="M253 283c0 3 0 5 2 7 4 2 7 6 9 10 3 5 9 8 14 12 2 2 4 3 5 6h-14c-4-1-6-5-8-8l-2-6c0-2 0-4-2-5-5-1-10-2-15 2-7 4-13 0-18-3-2-1-3-2-3-5 2-3 6-3 9-5l7-5h16z"/>
  <path fill="#FBC9A6" d="M305 313c-8-3-12-11-18-18l-1-3c5-3 10-3 16-2 2 9 7 14 17 15-3 4-9 5-14 8z"/>
  <path fill="#DE8E6D" d="M260 303c1 6 5 10 9 15l1 2-3-1h-2l-1-2-3-2-6-12v-1c-3-2-6-3-9 0l-1 2v1l-1 2v1l-1 2-2 1 1-10c0-3 1-5 4-4 4 1 8-2 12 1l2 5z"/>
  <path fill="#923722" d="M314 315h-1 1z"/>
  <path fill="#372831" d="M189 71c-1-1 0-2 2-2 0 2-1 2-2 2zm2-3h1l-1 1v-1z"/>
  <path fill="#6C4743" d="M185 67c1 0 0 0 0 0z"/>
  <path fill="#372831" d="M187 72v-1h1l-1 1z"/>
  <path fill="#7A9CB0" d="M187 72h1l3-3 1-1 4-2 2-2 1-1 2-1 2-1 2-1 1 1v1c-2 4-6 5-10 8a33 33 0 0 1-2 2h-1a22 22 0 0 1-2 2h-1l-2 1-7 5v-2l1-1 1-1 2-2 2-2z"/>
  <path fill="#333A4A" d="m185 74-2 2c0-1 0-2 2-2zm-3 3-1 1 1-1z"/>
  <path fill="#331920" d="M221 169c-2 4-6 4-9 5-4 0-7 2-11 3s-7 3-10-3c4-4 10-5 16-6l9-1c2 0 4 0 5 2zm-32 6-1 1 1-1z"/>
  <path fill="#381B22" d="m185 219 1-3c-1-3-1-5 1-8l4-4c3-2 6-5 11-5l9 1v2l-3 1c-8 0-13 4-17 10l-1 6 1 4v1h-3c-2-1-3-2-3-5z"/>
  <path fill="#E79572" d="m185 219 3 4c-3 3-6 3-10 5-3-2-6 1-10-1 5-5 10-7 17-8z"/>
  <path fill="#E9A482" d="M214 236c2 0 3-2 5-3 1 0 2-2 3 0 2 1 0 3-1 3l-7 3h-5c1-2 3-2 5-3z"/>
  <path fill="#A85F49" d="M224 225v1h-13a535 535 0 0 1-12-1l5-1h18l2 1z"/>
  <path fill="#C48E7B" d="M199 225v1l-4-1v-1c1-1 3-1 4 1z"/>
  <path fill="#6C4743" d="M195 224v1h-4v-2c1-1 2 0 4 1z"/>
  <path fill="#32171B" d="m318 205 1 2 2 5c0 2 0 4-2 7h-3v-8c-4-8-11-11-19-12l-5-1v-2l2-1h7a28 28 0 0 1 9 2l1 1 1 1h2c3 1 3 4 4 6z"/>
  <path fill="#E9A482" d="M317 210c1 3 2 6-1 9 0 2-2 2-4 2 0-4-3-5-5-8l-2-4 1-4c5-1 7 3 11 5z"/>
  <path fill="#E2BEAA" d="m307 212 5 5c1 1 2 2 0 4h-1l-8 1-2-1c0-4 4-5 4-9h2z"/>
  <path fill="#C48E7B" d="M301 221h10c-4 2-9 1-14 2v-1c1-1 2-2 4-1z"/>
  <path fill="#A85F49" d="M297 222v1h-15c5-4 9-3 15-1z"/>
  <path fill="#FEDDBC" d="M275 168c0-2-1-3-3-4-12-7-19-19-27-30l-1-3h4c5 2 10 2 16 5l11 2h5l30 7c7 1 13 2 19 1l5 2c2 6 5 11 3 18-1 5-4 8-8 12-5-2-10-5-16-6-1 0-2 0-2 2l-5-1h-3l-9-1h-2l-4-1h-3l-2-1-8-2z"/>
  <path fill="#FC9052" d="M334 148c-8 0-16 1-25-1-2-3 0-5 2-7h13c5 1 9-1 13-1l5 1 2 6c0 2-1 2-3 2h-7z"/>
  <path fill="#EEB999" d="M196 283c-8 1-16-1-22-7-2-2-2-5-3-8 0-2 1-2 3-2l7 1c12 1 24-2 36-7 2 0 3 1 3 3l-12 11c-6 5-7 5-11 1v6l-1 2z"/>
  <path fill="#F0B290" d="M219 264c0-2 0-3-2-4 2-2 3-5 7-5l2 4 1 2-7 4-1-1z"/>
  <path fill="#E9A482" d="m187 208-1 8c-5 1-9-3-12-5-2-1-3-2-6-1l2-5c6-1 11 2 17 3z"/>
  <path fill="#C26747" d="M202 200c-4 0-7 3-11 6v-3l1-1 1-1h1l2-2s1 0 0 0l4-1h5l-3 2z"/>
  <path fill="#693128" d="M211 203v-3h2l4 6v1h-2l-1-1-2-2-1-1z"/>
  <path fill="#9C4F3A" d="M211 200v1l-9-1 3-2c2 0 4 0 6 2z"/>
  <path fill="#7F372C" d="M191 203v3l-3 2c-1-2 1-4 3-5z"/>
  <path fill="#903C2C" d="m196 199-2 2v-1l2-1zm4-1-3 1 3-1z"/>
  <path fill="#7F372C" d="m193 201-1 1 1-1zm-1 1-1 1 1-1zm2-2v1h-1l1-1z"/>
  <path fill="#3B1F22" d="m294 171 9 1 2 1h1c0 3 5 2 6 6-7-3-14 0-20-3-3-1-7 1-11-1l-6-4c3-2 5 1 8-1h1c1 1 2 2 4 1h6z"/>
  <path fill="#AF4A37" d="M311 182h-1 1z"/>
  <path fill="#3B1F22" d="M318 179h1-1zm-1-1h1-1z"/>
  <path fill="#E57B4F" d="M277 224c-4 1-6 1-8-3 3-6 6-12 12-16 1 2 0 3-1 5v1l-1 2v1l-1 3v2l4 4c-1 2-3 1-5 1z"/>
  <path fill="#5B231C" d="M283 204c0-2 2-4 4-5l1 1-2 4-2 1-1-1z"/>
  <path fill="#7F372C" d="m279 211 2-6 1-1h1c1 2 0 3-1 5v1l-1 1h-2z"/>
  <path fill="#5B231C" d="M292 196v2c-1 2-1 2-3 1v-1l1-1 2-1z"/>
  <path fill="#32171B" d="M289 198v2l-2-1 2-1z"/>
  <path fill="#5B231C" d="M294 196h-2l1-1h1v1z"/>
  <path fill="#903C2C" d="m295 196-1-1c5-3 10-2 15 0v1h-14z"/>
  <path fill="#7F372C" d="m309 196 3 1v1h-2l-1-2zm5 3h-2v-1l2 1z"/>
  <path fill="#1B0E15" d="M336 208h2l-2 2v-2z"/>
  <path fill="#3C252C" d="M336 207v2l-1-2h1z"/>
  <path fill="#401F23" d="M271 276c4 7 10 3 16 4h1c2-1 4-2 5 0 2 2-2 3-2 5-4 2-9 2-13 1l-16-3h-2c-5-2-8-5-9-10s1-8 4-11l3-2c4-1 7-3 12-2h2l6 2c0 3-2 3-4 3-4 0-7 4-11 6-2 1 0 2 1 2 3 1 6 2 7 5z"/>
  <path fill="#4A2526" d="M271 276c-2-2-4-4-7-3-2 0-3 0-4-2l2-4c5-3 9-7 16-6l5 1c1 4 5 5 8 7 2 2 2 3-1 4-4 2-8 1-13 2l-6 1z"/>
  <path fill="#F1744C" d="M227 251v-1c6-1 12-4 18 0h5l12-3c2-1 3-2 6 0 2 1 4 2 3 5-3 1-6-2-8 1-2 2-5 3-6 6l-2 3c-2 2-5 3-8 1l-5-4c-3-2-6-3-10-2-2 0-4 0-6-2v-3l1-1z"/>
  <path fill="#F8C094" d="m259 236 2 4c0 3-1 3-2 2s-2-3-4-2l-5 2-6 1-1-2 4-3h-2l1-3c4-2 8-2 13 1z"/>
  <path fill="#F5AF83" d="M259 240c0 1 0 2 2 1 3 1 6 2 7 6h-6c-1-3-4-2-5-3l-7-2c0-4 2-3 5-2h4zm-13-4-1 2-3 2h-6v-2l2-1c2-1 5-3 8-1zm-2 4v3c-2 1-5 3-6-2l3-1h3z"/>
  <path fill="#F8C094" d="m241 240-3 1v-1l1-1h2v1z"/>
  <path fill="#C27B65" d="m217 206 2 2 2 5v2l-3 1-2-1-1-7 2-2z"/>
  <path fill="#9C4F3A" d="m221 213-2-5 2 2v3z"/>
  <path fill="#FBC9A6" d="M246 236c-3-1-5 1-8 1 3-5 3-11 4-17 5-2 9-1 15 0l2 16c-4 0-8-2-13 0z"/>
  <path fill="#F7814A" d="M262 253c2-5 5-3 9-1l-1 6-12 4v-3l2-2 3-1-1-3z"/>
  <path fill="#D5BEB2" d="M217 215h3c3 1 3 3 4 6v3l-1 1a438 438 0 0 1-12-2l6-8z"/>
  <path fill="#9C4F3A" d="m224 221-3-5v-3c3 2 3 5 3 8zm0 2v-2 2z"/>
  <path fill="#C48E7B" d="m223 225 1-1v1h-1z"/>
  <path fill="#FDD8B1" d="M326 257v-4l3-2 2 1-5 5z"/>
  <path fill="#D66E45" d="m243 258 4 4v1l-3 1-17-3-1-2v-4l6 1 11 2zm-16-7-1 1 1-1z"/>
  <path fill="#7D2C1A" d="M350 174c2 3 0 7 1 11-2-3-1-7-1-11z"/>
  <path fill="#B36045" d="m294 71-5 2-4 1-15-8c-2-1-5-1-5-5 0-1 1-2-1-1h-11c-3-2-6-1-9-2-3 0-5-1-5-5l6-2h1c7 8 15 5 23 4h8c2 5 7 7 12 8s6 3 5 8z"/>
  <path fill="#C26747" d="M294 71c0-4-2-7-7-7l-9-3c-2-1 1-4-1-6l11 1c2 0 5 2 5 3 2 5 5 5 8 4s4 0 6 2l-1 2-2 1-10 3z"/>
  <path fill="#903C2C" d="m306 67 1-1h1l-2 2v-1z"/>
  <path fill="#5B231C" d="M306 67v1h-2l2-1z"/>
  <path fill="#9F5B49" d="M239 53c0 3 3 4 6 4 2 0 5-1 8 2v1c-7 3-15 4-23 5-4-2-9-3-9-9l4-1 14-2z"/>
  <path fill="#452F32" d="M205 61h-2l1-2h3l-2 2z"/>
  <path fill="#7C4C43" d="M212 57v1h-2l2-1zm2-1-2 1 2-1zm-7 3 2-1-2 1z"/>
  <path fill="#8C584C" d="M221 56c1 4 5 5 8 8l-1 2c-6 2-13 5-20 6-4-3-4-6-2-9v-1c1-2 3-3 6-3l9-3z"/>
  <path fill="#90898B" d="M212 59c-1 2-3 2-6 3l-1-1 2-2 2-1h3v1z"/>
  <path fill="#9E382B" d="M270 363c-1 3-4 2-6 2l6-2z"/>
  <path fill="#D67B5C" d="M237 284c-4 5-10 7-16 9-7 2-15 1-22 1-3 0-6-1-7-5-1-3 3-3 5-5l2-1 2 2c8 3 16 2 24 0l11-2 1 1z"/>
  <path fill="#32171B" d="m199 284-2-1h-1v-2c2-1 3-1 4 1l-1 2z"/>
  <path fill="#C26747" d="M210 321c-2-1-4 0-6-3l16 2c-3 3-6 0-10 1zm22-2c-2 3-5 3-8 2 2-3 5-2 8-2zm5-2c-1 2-2 2-4 2 1-1 1-3 4-2zm-14 2h-1 1z"/>
  <path fill="#693128" d="M347 148c-1-7 4-8 10-10 1 8-2 14-4 22-2-3-5-4-5-9l-1-3z"/>
  <path fill="#441F1D" d="M347 148c2 0 2 1 1 3l-1-1v-2z"/>
  <path fill="#60302C" d="m346 133-5 4-5 2h-4l-2-1c-1-3 0-5 3-5h6-11c-2-3-3-5-6-6-1-1-2-3-1-5h18c4 1 0 3 1 6 3 0 5-2 8 0 1 2 0 4-2 5z"/>
  <path fill="#7A392D" d="M346 133c0-2 2-2 2-5l2-1 6-4c4-2 5 2 6 5-5 3-10 4-16 5z"/>
  <path fill="#F4895B" d="M333 138h2l6-1 1 3c-6 1-11 2-17 1l1-2 7-1z"/>
  <path fill="#60302C" d="M275 88c0-3 3-3 5-3 5 1 11 2 17 5 0 2 0 2 5 4l-12-1c-3-3-7-1-10-2l-5-3z"/>
  <path fill="#4E2323" d="M304 91h3l1 2-4-2z"/>
  <path fill="#754037" d="M332 106c0 3 5 5 4 10l-1 1c-9 0-16-3-24-5-4-1-7-3-12-3a411 411 0 0 1-35-9l-4-2-14 1h-7l-2-1-1-3c1-2 3-2 5-3l30-2c5-1 9 0 14 2 0 2 2 2 3 3l27 6 17 5z"/>
  <path fill="#3B1F22" d="M285 92c-16-2-32 1-48 3-4 2-8 3-13 3v-6c8-1 17-4 26-4 4-3 8-1 11-1h6l8 1 15 4h-5z"/>
  <path fill="#69372F" d="M345 116h-2 2zm-10 0h5c0 3-4 2-3 5l-3 1c-9 0-18 0-28-2l-1-1-3-1h-1l-4-1-4-2c0-4 3-4 6-5h5c10 4 20 7 31 6z"/>
  <path fill="#7A392D" d="m348 128-7 1h-3c-2-1 0-2 1-3l1-4h2c2-2 5-3 8-3-3 2-2 5-2 8v1z"/>
  <path fill="#4A2526" d="M342 122h-2c-6 1-12 2-19 0-6 2-12 1-17-4 11 2 21 4 33 3l5 1z"/>
  <path fill="#60302C" d="M348 128v-1h2l-2 1z"/>
  <path fill="#9F5B49" d="m277 77-8 3-2 1-1-1v-3l-1-1v1h-2l-15-6c-2-1-3-2-3-5 2-2 5-3 7-3h4c5 4 12 6 17 8 3 1 5 2 4 6z"/>
  <path fill="#A85F49" d="M277 77c0-3-2-3-4-4-5-3-12-3-17-9 2-4 5-3 9-3 1 3 4 3 6 4 5 3 11 3 14 9-2 2-5 2-8 3z"/>
  <path fill="#2D141D" d="M267 80h2l2 1c-4 3-9 2-13 5l9 1c-5 2-11 0-17 1v-2c0-2 1-2 3-3h2l3-2h6l3-1zm4 1h4a172 172 0 0 1-4 0z"/>
  <path fill="#693128" d="m289 75-1 1v-1h1z"/>
  <path fill="#3B1F22" d="M326 140h-1l-14 1c-4 2-9 0-13-1-5-1-11-1-16-5-8-5-16-9-25-10l-5-1-2-1-17-3 2-1c1-1-1-1-2-2-1 0-3-1-3-3h11c10 3 20 5 29 9l10 4 1 2h1l3 1 5 1 2 2h4c9 3 19 5 29 5l1 2z"/>
  <path fill="#F4895B" d="M282 135c9 3 19 5 29 5l-2 6c-11-1-22-4-34-8 1-4 5-1 7-3z"/>
  <path fill="#F19769" d="M264 135c-5 0-11-1-16-4 6-1 11 2 16 4z"/>
  <path fill="#3B1F22" d="M224 120h7-7z"/>
  <path fill="#CB6144" d="M250 123h1-1z"/>
  <path fill="#6D3F39" d="M300 110c-1 4-5 1-7 4-2 2-4 1-6 0l-1-2v2c-3 4-6 1-10 1a284 284 0 0 1-17-4l-18-2c-3-2-5-4-4-8 2-3 5-2 9-2h19l28 8 4 1 2 1 1 1z"/>
  <path fill="#5F3835" d="M259 111h1l26 5h3l2 2-1 2c-2 2-4 1-6 1-5 0-9-1-13 4l-36-11h-4c5-2 12-2 18-2l10-1zm-22-10c-1 3 3 4 3 8l-20-1c-1 0-3 1-5-2 6-5 14-5 22-5z"/>
  <path fill="#331920" d="M237 101c-7 1-14 2-22 5h-1c0-4 4-3 6-5l3-2h1l2-1h3l1-1h2c3 0 4 2 7 1h7v1l-9 2z"/>
  <path fill="#422C30" d="M224 99v1l-4 1h-4c2-2 4-2 7-3l1 1z"/>
  <path fill="#5F3835" d="m224 99-1-1h1c4-1 8-4 13-3v2c-1 2-3 1-5 1h-2l-1 1h-5z"/>
  <path fill="#7C4C43" d="M256 84h-3c-8-3-16 1-24-1l-14 1c-1-2-3-4-3-7 1-2 3-3 5-3 6-3 11-5 18-6l14 8c2 2 4 1 6 1l4-1 3 1-2 3c-1 0-2 0-3 2l-1 2z"/>
  <path fill="#6D3F39" d="M236 69c-8 1-16 5-24 8-1 0-2 2-3-1h-1c-2 0-5 2-7-1 1-4 4-3 7-4l20-6h7c2 0 4-1 6 1 0 3-2 3-5 3zm-31 10 2-1c0 1 0 2-2 1z"/>
  <path fill="#633831" d="m229 83 13-2c5-2 7 2 11 3l-3 2c-9 0-18 3-27 5 0-2 2-3 3-3 2 0 3-2 3-5zm-8 8h-1 1z"/>
  <path fill="#7C4C43" d="m208 71-7 4-13 7c-3-2-1-4 0-7l1-1 1-1 2-1 1-1 2-1 11-8c0 3-1 6 2 9z"/>
  <path fill="#7A392D" d="M255 303c4 3 5 7 7 11v3c-4-1-5-4-6-7l-1-7zm-9-1c2-4 6-4 9 0-3-1-5-2-9 0z"/>
  <path fill="#7F372C" d="M262 317v-2c1 0 2 0 2 2h-2z"/>
  <path fill="#E88C66" d="M261 282c10 1 19 4 29 3 7 2 11 0 17-3 0 3-3 5-5 8l-16 2-29-8c0-2 2-2 4-2z"/>
  <path fill="#7A392D" d="M261 282c-1 2-3 1-4 2h-6v-3h8l2 1z"/>
  <path fill="#854334" d="m251 283-9 1-1-2c3-2 6-1 10 1z"/>
  <path fill="#F0B290" d="m260 303-2-5c2 1 3 2 2 5z"/>
  <path fill="#C27B65" d="M241 282v2h-4v-1l4-2v1z"/>
  <path fill="#D5BEB2" d="m195 224-4-1c-1-1-2-1-2-3 2-3 5-5 9-5 2 3 3 6 6 8v2h-5l-4-1z"/>
  <path fill="#C48E7B" d="M198 216c-4 0-5 3-9 4-2-2 0-4 1-7 3-2 4-6 9-4l1 2-2 5z"/>
  <path fill="#C27B65" d="M199 209c-4 0-5 3-9 4 3-7 8-11 16-11l1 2-8 5z"/>
  <path fill="#93513E" d="M207 204v-1l4-1 1 2h-5z"/>
  <path fill="#C48E7B" d="M204 225v-1c2-3 4-3 7-1v1l-7 1z"/>
  <path fill="#D67B5C" d="M288 200h1l3-1c9-3 22 2 25 11-5 1-7-4-11-5s-6-4-10-3l-8 3-3-1 3-4z"/>
  <path fill="#C26747" d="m309 196 1 2-8-2c2-2 4 0 7 0zm3 2v1l-2-1h2zm0 1h1-1z"/>
  <path fill="#58322F" d="M289 204c7-5 11-5 16 1l1 4h-1c-4-2-8-2-12-1h-4l-1-1 1-3z"/>
  <path fill="#FBF3E7" d="m305 210 1-1c1 1 2 1 1 3h-2v-2z"/>
  <path fill="#281522" d="M305 209v3c1 4-1 6-4 8-8 3-13 1-15-7 0-3 0-4 2-6h4c4-1 9-3 13 2z"/>
  <path fill="#D5BEB2" d="M287 212c2 8 4 8 14 8v1l-4 1-15 1c-2 0-5 1-5-3l5-7c1-1 2-2 5-1z"/>
  <path fill="#32171B" d="m288 170-1 3c-2 0-3-1-3-3h4zm6 1-1 2-1-2h2zm11 1h-2 2z"/>
  <path fill="#3B1F22" d="M199 284c0-2 0-3-3-3-2-3-1-6 0-9 4 7 5 7 11 1 5 4 10 1 15 1s10 0 15-2c3 0 4-2 5-4s3-4 5-1l1 2c-6 10-15 13-26 14-6 1-13-1-19 2l-4-1z"/>
  <path fill="#49292C" d="M238 273c-7 2-14 4-21 2h-1c-4 4-6 2-9-2 3-4 7-7 12-9l1-1 15 2c4 1 6 3 3 8z"/>
  <path fill="#401F23" d="M238 273c1-6 1-7-5-7l-13-2 7-3c6-1 12 0 18 2h3v4c-3-1-4-1-5 2-1 2-2 4-5 4z"/>
  <path fill="#93513E" d="m212 204 2 1c-1 1-2 0-2-1zm5 2-1 1-1-1h2zm-3-1 1 1-1-1z"/>
  <path fill="#C48E7B" d="M287 212c-3 0-4 1-5 3l-4 4-1-2 1-3 1-3h1l1-1c2-1 3-5 7-4v1l-1 5z"/>
  <path fill="#C27B65" d="M288 206c-3 0-4 3-7 4l2-5 1-1h5l-1 2zm-7 4-1 1 1-1z"/>
  <path fill="#EEB999" d="m248 268-1-4v-2h9c-3 3-4 6-4 11l-1 9v1l-10-1v-1l6-12 1-1z"/>
  <path fill="#DE8E6D" d="M251 282c-2-3 0-6 1-9 1 4 3 6 8 8-3 2-5 1-9 1z"/>
  <path fill="#D66E45" d="M257 262h-2l1-3h3l-1 2-1 1z"/>
  <path fill="#5B231C" d="M259 259h-2c0-3 2-4 5-6 1 1 4 0 2 3l-2 2-3 1zm-16-1c-4 1-7 2-11-2 4-3 7 0 11 2z"/>
  <path fill="#FBC9A6" d="M241 240v-1l4-1 2 1-3 1h-3zm18 0h-4c1-3 2-2 4 0z"/>
  <path fill="#2D141D" d="M211 223h-7c-4 0-6-3-6-7l1-5c6-5 12-5 18 3v1c-1 3-2 7-6 8z"/>
  <path fill="#49292C" d="m217 214-2-1c-5-5-10-5-16-2v-2c2-3 4-5 8-5h4l3 1 1 1 1 1 1 7z"/>
  <path fill="#F1744C" d="M247 262v1h-2l2-1z"/>
  <path fill="#93513E" d="m265 61-9 3h-3v-5c5 1 11-2 17 0l-5 2z"/>
  <path fill="#854334" d="M253 60v4l-7 2h-5l-9 1c-2 1-3 1-4-2l1-1 24-4z"/>
  <path fill="#32171B" d="M247 269c-1 4-2 9-6 12l-4 2c-8 2-15 5-23 5-5 1-10 0-15-2v-2l8-2h5c3 1 5 2 8-1l1-1c11 3 19-3 26-11z"/>
  <path fill="#3B1F22" d="M199 284v2l-1-2h1z"/>
  <path fill="#58322F" d="M271 125c-1-4 1-5 5-5 3 0 7-2 10 0 2 0 3 0 5-2l-21-4c-3-1-7 0-10-3 7 0 15 2 22 4 1 0 3 1 4-2l7 1 4 2 4 1 3 1c5 3 11 3 17 4 0 3 2 4 4 5s3 2 3 5c-3 2-6 2-8 1-12-2-24-4-36-3h-2l-2-1c-2-2-6-2-9-4z"/>
  <path fill="#522D2C" d="M283 130c0-2 2-2 4-2 9 0 17 0 26 2 4 2 9 2 15 2h12v1l-7 1c-2 0-3 1-2 4l-5 1c-11 1-21-1-32-5h-2l-2-1c-1-2-4 0-6-3h-1z"/>
  <path fill="#7A392D" d="m326 139 5-1h2c-2 2-4 2-7 2v-1z"/>
  <path fill="#522D2C" d="M335 138h-1 1z"/>
  <path fill="#7A392D" d="M293 91c1 0 0 0 0 0z"/>
  <path fill="#60302C" d="M335 116c-2 4-6 2-8 2-8-2-16-3-24-7l-2-1-2-1v-1c2-2 5 0 7 1 9 2 18 6 29 7z"/>
  <path fill="#522D2C" d="M299 108v1c-6 0-10-3-16-4l-17-5v-1l3-1c9 5 20 6 30 10z"/>
  <path fill="#401F23" d="M266 99v1l-20-1v-1c5-2 9-1 14-1l4 2h2z"/>
  <path fill="#29111B" d="M232 98h7c-2 2-4 1-7 0z"/>
  <path fill="#522D2C" d="M264 99c-1 0-2 0-3-2 1 0 2 0 3 2zm35 10 2 1h-1l-1-1zm2 1 2 1-2-1z"/>
  <path fill="#93513E" d="M241 66h5c0 2 1 3 3 4l15 6h1l3-1c-1 2-2 2-2 5l-1 2h-9c0-3 4-2 6-6-11 6-19 0-26-7 1-1 4-1 5-3z"/>
  <path fill="#4E2323" d="m265 82 1-2h1l-2 2z"/>
  <path fill="#7C4C43" d="M265 76h-1 1z"/>
  <path fill="#633831" d="M256 82h2c0 1 0 2-2 2v-2z"/>
  <path fill="#2D141D" d="M283 130h1-2 1z"/>
  <path fill="#29111B" d="M292 134h2-2z"/>
  <path fill="#58322F" d="M286 113h-1 1zm-4-1v-1 1z"/>
  <path fill="#543738" d="M212 74v1-1zm-3 2z"/>
  <path fill="#FEDDBC" d="M292 207v1l-1 3h-1c-1-1 0-2 1-4h1z"/>
  <path fill="#32171B" d="M197 279c-1 0 0 0 0 0z"/>
  <path fill="#D66E45" d="M246 263h1v1l-1-1z"/>
  <path fill="#D5BEB2" d="M204 214c0 3-1 2-2 1v-2l2 1z"/>
</svg>
